<?xml version="1.0" encoding="utf-8"?>
<svg xmlns="http://www.w3.org/2000/svg" xmlns:xlink="http://www.w3.org/1999/xlink" width="600" height="300" viewBox="0 0 2400 1200">
<defs>
  <clipPath id="clip1500">
    <rect x="0" y="0" width="2000" height="2000"/>
  </clipPath>
</defs>
<defs>
  <clipPath id="clip1501">
    <rect x="0" y="0" width="2400" height="1200"/>
  </clipPath>
</defs>
<polygon clip-path="url(#clip1501)" points="
0,1200 2400,1200 2400,0 0,0 
  " fill="#ffffff" fill-rule="evenodd" fill-opacity="1"/>
<defs>
  <clipPath id="clip1502">
    <rect x="480" y="0" width="1681" height="1200"/>
  </clipPath>
</defs>
<polygon clip-path="url(#clip1501)" points="
161.394,1103.47 2321.26,1103.47 2321.26,47.2441 161.394,47.2441 
  " fill="#ffffff" fill-rule="evenodd" fill-opacity="1"/>
<defs>
  <clipPath id="clip1503">
    <rect x="161" y="47" width="2161" height="1057"/>
  </clipPath>
</defs>
<polyline clip-path="url(#clip1503)" style="stroke:#000000; stroke-width:2; stroke-opacity:0.1; fill:none" points="
  222.522,1103.47 222.522,47.2441 
  "/>
<polyline clip-path="url(#clip1503)" style="stroke:#000000; stroke-width:2; stroke-opacity:0.1; fill:none" points="
  731.925,1103.47 731.925,47.2441 
  "/>
<polyline clip-path="url(#clip1503)" style="stroke:#000000; stroke-width:2; stroke-opacity:0.1; fill:none" points="
  1241.33,1103.47 1241.33,47.2441 
  "/>
<polyline clip-path="url(#clip1503)" style="stroke:#000000; stroke-width:2; stroke-opacity:0.1; fill:none" points="
  1750.73,1103.47 1750.73,47.2441 
  "/>
<polyline clip-path="url(#clip1503)" style="stroke:#000000; stroke-width:2; stroke-opacity:0.1; fill:none" points="
  2260.13,1103.47 2260.13,47.2441 
  "/>
<polyline clip-path="url(#clip1503)" style="stroke:#000000; stroke-width:2; stroke-opacity:0.1; fill:none" points="
  161.394,1073.58 2321.26,1073.58 
  "/>
<polyline clip-path="url(#clip1503)" style="stroke:#000000; stroke-width:2; stroke-opacity:0.1; fill:none" points="
  161.394,891.128 2321.26,891.128 
  "/>
<polyline clip-path="url(#clip1503)" style="stroke:#000000; stroke-width:2; stroke-opacity:0.1; fill:none" points="
  161.394,708.674 2321.26,708.674 
  "/>
<polyline clip-path="url(#clip1503)" style="stroke:#000000; stroke-width:2; stroke-opacity:0.1; fill:none" points="
  161.394,526.22 2321.26,526.22 
  "/>
<polyline clip-path="url(#clip1503)" style="stroke:#000000; stroke-width:2; stroke-opacity:0.1; fill:none" points="
  161.394,343.766 2321.26,343.766 
  "/>
<polyline clip-path="url(#clip1503)" style="stroke:#000000; stroke-width:2; stroke-opacity:0.1; fill:none" points="
  161.394,161.312 2321.26,161.312 
  "/>
<polyline clip-path="url(#clip1501)" style="stroke:#000000; stroke-width:4; stroke-opacity:1; fill:none" points="
  161.394,1103.47 2321.26,1103.47 
  "/>
<polyline clip-path="url(#clip1501)" style="stroke:#000000; stroke-width:4; stroke-opacity:1; fill:none" points="
  161.394,1103.47 161.394,47.2441 
  "/>
<polyline clip-path="url(#clip1501)" style="stroke:#000000; stroke-width:4; stroke-opacity:1; fill:none" points="
  222.522,1103.47 222.522,1087.63 
  "/>
<polyline clip-path="url(#clip1501)" style="stroke:#000000; stroke-width:4; stroke-opacity:1; fill:none" points="
  731.925,1103.47 731.925,1087.63 
  "/>
<polyline clip-path="url(#clip1501)" style="stroke:#000000; stroke-width:4; stroke-opacity:1; fill:none" points="
  1241.33,1103.47 1241.33,1087.63 
  "/>
<polyline clip-path="url(#clip1501)" style="stroke:#000000; stroke-width:4; stroke-opacity:1; fill:none" points="
  1750.73,1103.47 1750.73,1087.63 
  "/>
<polyline clip-path="url(#clip1501)" style="stroke:#000000; stroke-width:4; stroke-opacity:1; fill:none" points="
  2260.13,1103.47 2260.13,1087.63 
  "/>
<polyline clip-path="url(#clip1501)" style="stroke:#000000; stroke-width:4; stroke-opacity:1; fill:none" points="
  161.394,1073.58 193.792,1073.58 
  "/>
<polyline clip-path="url(#clip1501)" style="stroke:#000000; stroke-width:4; stroke-opacity:1; fill:none" points="
  161.394,891.128 193.792,891.128 
  "/>
<polyline clip-path="url(#clip1501)" style="stroke:#000000; stroke-width:4; stroke-opacity:1; fill:none" points="
  161.394,708.674 193.792,708.674 
  "/>
<polyline clip-path="url(#clip1501)" style="stroke:#000000; stroke-width:4; stroke-opacity:1; fill:none" points="
  161.394,526.22 193.792,526.22 
  "/>
<polyline clip-path="url(#clip1501)" style="stroke:#000000; stroke-width:4; stroke-opacity:1; fill:none" points="
  161.394,343.766 193.792,343.766 
  "/>
<polyline clip-path="url(#clip1501)" style="stroke:#000000; stroke-width:4; stroke-opacity:1; fill:none" points="
  161.394,161.312 193.792,161.312 
  "/>
<g clip-path="url(#clip1501)">
<text style="fill:#000000; fill-opacity:1; font-family:Arial,Helvetica Neue,Helvetica,sans-serif; font-size:48px; text-anchor:middle;" transform="rotate(0, 222.522, 1157.47)" x="222.522" y="1157.47">0.00</text>
</g>
<g clip-path="url(#clip1501)">
<text style="fill:#000000; fill-opacity:1; font-family:Arial,Helvetica Neue,Helvetica,sans-serif; font-size:48px; text-anchor:middle;" transform="rotate(0, 731.925, 1157.47)" x="731.925" y="1157.47">0.25</text>
</g>
<g clip-path="url(#clip1501)">
<text style="fill:#000000; fill-opacity:1; font-family:Arial,Helvetica Neue,Helvetica,sans-serif; font-size:48px; text-anchor:middle;" transform="rotate(0, 1241.33, 1157.47)" x="1241.33" y="1157.47">0.50</text>
</g>
<g clip-path="url(#clip1501)">
<text style="fill:#000000; fill-opacity:1; font-family:Arial,Helvetica Neue,Helvetica,sans-serif; font-size:48px; text-anchor:middle;" transform="rotate(0, 1750.73, 1157.47)" x="1750.73" y="1157.47">0.75</text>
</g>
<g clip-path="url(#clip1501)">
<text style="fill:#000000; fill-opacity:1; font-family:Arial,Helvetica Neue,Helvetica,sans-serif; font-size:48px; text-anchor:middle;" transform="rotate(0, 2260.13, 1157.47)" x="2260.13" y="1157.47">1.00</text>
</g>
<g clip-path="url(#clip1501)">
<text style="fill:#000000; fill-opacity:1; font-family:Arial,Helvetica Neue,Helvetica,sans-serif; font-size:48px; text-anchor:end;" transform="rotate(0, 137.394, 1091.08)" x="137.394" y="1091.08">0.0</text>
</g>
<g clip-path="url(#clip1501)">
<text style="fill:#000000; fill-opacity:1; font-family:Arial,Helvetica Neue,Helvetica,sans-serif; font-size:48px; text-anchor:end;" transform="rotate(0, 137.394, 908.628)" x="137.394" y="908.628">0.5</text>
</g>
<g clip-path="url(#clip1501)">
<text style="fill:#000000; fill-opacity:1; font-family:Arial,Helvetica Neue,Helvetica,sans-serif; font-size:48px; text-anchor:end;" transform="rotate(0, 137.394, 726.174)" x="137.394" y="726.174">1.0</text>
</g>
<g clip-path="url(#clip1501)">
<text style="fill:#000000; fill-opacity:1; font-family:Arial,Helvetica Neue,Helvetica,sans-serif; font-size:48px; text-anchor:end;" transform="rotate(0, 137.394, 543.72)" x="137.394" y="543.72">1.5</text>
</g>
<g clip-path="url(#clip1501)">
<text style="fill:#000000; fill-opacity:1; font-family:Arial,Helvetica Neue,Helvetica,sans-serif; font-size:48px; text-anchor:end;" transform="rotate(0, 137.394, 361.266)" x="137.394" y="361.266">2.0</text>
</g>
<g clip-path="url(#clip1501)">
<text style="fill:#000000; fill-opacity:1; font-family:Arial,Helvetica Neue,Helvetica,sans-serif; font-size:48px; text-anchor:end;" transform="rotate(0, 137.394, 178.812)" x="137.394" y="178.812">2.5</text>
</g>
<polygon clip-path="url(#clip1503)" points="
222.522,1073.58 242.898,1073.58 263.275,1073.58 283.651,1073.58 304.027,1073.58 324.403,1073.58 344.779,1073.57 365.155,1073.55 385.531,1073.52 405.907,1073.46 
  426.283,1073.36 446.659,1073.2 467.035,1072.96 487.412,1072.61 507.788,1072.11 528.164,1071.44 548.54,1070.53 568.916,1069.35 589.292,1067.83 609.668,1065.92 
  630.044,1063.54 650.42,1060.62 670.796,1057.09 691.172,1052.87 711.549,1047.87 731.925,1042.01 752.301,1035.21 772.677,1027.38 793.053,1018.45 813.429,1008.32 
  833.805,996.936 854.181,984.214 874.557,970.094 894.933,954.52 915.309,937.447 935.686,918.839 956.062,898.67 976.438,876.931 996.814,853.624 1017.19,828.766 
  1037.57,802.39 1057.94,774.547 1078.32,745.303 1098.69,714.744 1119.07,682.972 1139.45,650.109 1159.82,616.293 1180.2,581.681 1200.57,546.449 1220.95,510.788 
  1241.33,474.905 1261.7,439.023 1282.08,403.379 1302.46,368.221 1322.83,333.809 1343.21,300.41 1363.58,268.299 1383.96,237.754 1404.34,209.055 1424.71,182.483 
  1445.09,158.31 1465.46,136.807 1485.84,118.23 1506.22,102.824 1526.59,90.8166 1546.97,82.4151 1567.34,77.8032 1587.72,77.1374 1608.1,80.5439 1628.47,88.1149 
  1648.85,99.9059 1669.22,115.932 1689.6,136.168 1709.98,160.54 1730.35,188.929 1750.73,221.169 1771.11,257.041 1791.48,296.279 1811.86,338.564 1832.23,383.528 
  1852.61,430.757 1872.99,479.791 1893.36,530.127 1913.74,581.227 1934.11,632.521 1954.49,683.415 1974.87,733.301 1995.24,781.565 2015.62,827.6 2035.99,870.822 
  2056.37,910.683 2076.75,946.688 2097.12,978.42 2117.5,1005.56 2137.88,1027.91 2158.25,1045.42 2178.63,1058.23 2199,1066.69 2219.38,1071.41 2239.76,1073.29 
  2260.13,1073.58 2260.13,1073.58 2239.76,1073.58 2219.38,1073.58 2199,1073.58 2178.63,1073.58 2158.25,1073.58 2137.88,1073.58 2117.5,1073.58 2097.12,1073.58 
  2076.75,1073.58 2056.37,1073.58 2035.99,1073.58 2015.62,1073.58 1995.24,1073.58 1974.87,1073.58 1954.49,1073.58 1934.11,1073.58 1913.74,1073.58 1893.36,1073.58 
  1872.99,1073.58 1852.61,1073.58 1832.23,1073.58 1811.86,1073.58 1791.48,1073.58 1771.11,1073.58 1750.73,1073.58 1730.35,1073.58 1709.98,1073.58 1689.6,1073.58 
  1669.22,1073.58 1648.85,1073.58 1628.47,1073.58 1608.1,1073.58 1587.72,1073.58 1567.34,1073.58 1546.97,1073.58 1526.59,1073.58 1506.22,1073.58 1485.84,1073.58 
  1465.46,1073.58 1445.09,1073.58 1424.71,1073.58 1404.34,1073.58 1383.96,1073.58 1363.58,1073.58 1343.21,1073.58 1322.83,1073.58 1302.46,1073.58 1282.08,1073.58 
  1261.7,1073.58 1241.33,1073.58 1220.95,1073.58 1200.57,1073.58 1180.2,1073.58 1159.82,1073.58 1139.45,1073.58 1119.07,1073.58 1098.69,1073.58 1078.32,1073.58 
  1057.94,1073.58 1037.57,1073.58 1017.19,1073.58 996.814,1073.58 976.438,1073.58 956.062,1073.58 935.686,1073.58 915.309,1073.58 894.933,1073.58 874.557,1073.58 
  854.181,1073.58 833.805,1073.58 813.429,1073.58 793.053,1073.58 772.677,1073.58 752.301,1073.58 731.925,1073.58 711.549,1073.58 691.172,1073.58 670.796,1073.58 
  650.42,1073.58 630.044,1073.58 609.668,1073.58 589.292,1073.58 568.916,1073.58 548.54,1073.58 528.164,1073.58 507.788,1073.58 487.412,1073.58 467.035,1073.58 
  446.659,1073.58 426.283,1073.58 405.907,1073.58 385.531,1073.58 365.155,1073.58 344.779,1073.58 324.403,1073.58 304.027,1073.58 283.651,1073.58 263.275,1073.58 
  242.898,1073.58 222.522,1073.58 
  " fill="#ffa500" fill-rule="evenodd" fill-opacity="0.5"/>
<polyline clip-path="url(#clip1503)" style="stroke:#009af9; stroke-width:4; stroke-opacity:1; fill:none" points="
  222.522,1073.58 242.898,1073.58 263.275,1073.58 283.651,1073.58 304.027,1073.58 324.403,1073.58 344.779,1073.57 365.155,1073.55 385.531,1073.52 405.907,1073.46 
  426.283,1073.36 446.659,1073.2 467.035,1072.96 487.412,1072.61 507.788,1072.11 528.164,1071.44 548.54,1070.53 568.916,1069.35 589.292,1067.83 609.668,1065.92 
  630.044,1063.54 650.42,1060.62 670.796,1057.09 691.172,1052.87 711.549,1047.87 731.925,1042.01 752.301,1035.21 772.677,1027.38 793.053,1018.45 813.429,1008.32 
  833.805,996.936 854.181,984.214 874.557,970.094 894.933,954.52 915.309,937.447 935.686,918.839 956.062,898.67 976.438,876.931 996.814,853.624 1017.19,828.766 
  1037.57,802.39 1057.94,774.547 1078.32,745.303 1098.69,714.744 1119.07,682.972 1139.45,650.109 1159.82,616.293 1180.2,581.681 1200.57,546.449 1220.95,510.788 
  1241.33,474.905 1261.7,439.023 1282.08,403.379 1302.46,368.221 1322.83,333.809 1343.21,300.41 1363.58,268.299 1383.96,237.754 1404.34,209.055 1424.71,182.483 
  1445.09,158.31 1465.46,136.807 1485.84,118.23 1506.22,102.824 1526.59,90.8166 1546.97,82.4151 1567.34,77.8032 1587.72,77.1374 1608.1,80.5439 1628.47,88.1149 
  1648.85,99.9059 1669.22,115.932 1689.6,136.168 1709.98,160.54 1730.35,188.929 1750.73,221.169 1771.11,257.041 1791.48,296.279 1811.86,338.564 1832.23,383.528 
  1852.61,430.757 1872.99,479.791 1893.36,530.127 1913.74,581.227 1934.11,632.521 1954.49,683.415 1974.87,733.301 1995.24,781.565 2015.62,827.6 2035.99,870.822 
  2056.37,910.683 2076.75,946.688 2097.12,978.42 2117.5,1005.56 2137.88,1027.91 2158.25,1045.42 2178.63,1058.23 2199,1066.69 2219.38,1071.41 2239.76,1073.29 
  2260.13,1073.58 
  "/>
<polygon clip-path="url(#clip1501)" points="
1610.62,251.724 2249.26,251.724 2249.26,130.764 1610.62,130.764 
  " fill="#ffffff" fill-rule="evenodd" fill-opacity="1"/>
<polyline clip-path="url(#clip1501)" style="stroke:#000000; stroke-width:4; stroke-opacity:1; fill:none" points="
  1610.62,251.724 2249.26,251.724 2249.26,130.764 1610.62,130.764 1610.62,251.724 
  "/>
<polygon clip-path="url(#clip1501)" points="
1634.62,215.436 1778.62,215.436 1778.62,167.052 1634.62,167.052 1634.62,215.436 
  " fill="#ffa500" fill-rule="evenodd" fill-opacity="0.5"/>
<polyline clip-path="url(#clip1501)" style="stroke:#009af9; stroke-width:4; stroke-opacity:1; fill:none" points="
  1634.62,167.052 1778.62,167.052 
  "/>
<g clip-path="url(#clip1501)">
<text style="fill:#000000; fill-opacity:1; font-family:Arial,Helvetica Neue,Helvetica,sans-serif; font-size:48px; text-anchor:start;" transform="rotate(0, 1802.62, 208.744)" x="1802.62" y="208.744">Conjugate solution</text>
</g>
</svg>
