<?xml version="1.0" encoding="utf-8"?>
<svg xmlns="http://www.w3.org/2000/svg" xmlns:xlink="http://www.w3.org/1999/xlink" width="600" height="300" viewBox="0 0 2400 1200">
<defs>
  <clipPath id="clip1900">
    <rect x="0" y="0" width="2000" height="2000"/>
  </clipPath>
</defs>
<defs>
  <clipPath id="clip1901">
    <rect x="0" y="0" width="2400" height="1200"/>
  </clipPath>
</defs>
<polygon clip-path="url(#clip1901)" points="
0,1200 2400,1200 2400,0 0,0 
  " fill="#ffffff" fill-rule="evenodd" fill-opacity="1"/>
<defs>
  <clipPath id="clip1902">
    <rect x="480" y="0" width="1681" height="1200"/>
  </clipPath>
</defs>
<polygon clip-path="url(#clip1901)" points="
161.394,1111.86 2321.26,1111.86 2321.26,47.2441 161.394,47.2441 
  " fill="#ffffff" fill-rule="evenodd" fill-opacity="1"/>
<defs>
  <clipPath id="clip1903">
    <rect x="161" y="47" width="2161" height="1066"/>
  </clipPath>
</defs>
<polyline clip-path="url(#clip1903)" style="stroke:#000000; stroke-width:2; stroke-opacity:0.1; fill:none" points="
  233.464,1111.86 233.464,47.2441 
  "/>
<polyline clip-path="url(#clip1903)" style="stroke:#000000; stroke-width:2; stroke-opacity:0.1; fill:none" points="
  691.596,1111.86 691.596,47.2441 
  "/>
<polyline clip-path="url(#clip1903)" style="stroke:#000000; stroke-width:2; stroke-opacity:0.1; fill:none" points="
  1149.73,1111.86 1149.73,47.2441 
  "/>
<polyline clip-path="url(#clip1903)" style="stroke:#000000; stroke-width:2; stroke-opacity:0.1; fill:none" points="
  1607.86,1111.86 1607.86,47.2441 
  "/>
<polyline clip-path="url(#clip1903)" style="stroke:#000000; stroke-width:2; stroke-opacity:0.1; fill:none" points="
  2065.99,1111.86 2065.99,47.2441 
  "/>
<polyline clip-path="url(#clip1903)" style="stroke:#000000; stroke-width:2; stroke-opacity:0.1; fill:none" points="
  161.394,1081.73 2321.26,1081.73 
  "/>
<polyline clip-path="url(#clip1903)" style="stroke:#000000; stroke-width:2; stroke-opacity:0.1; fill:none" points="
  161.394,897.825 2321.26,897.825 
  "/>
<polyline clip-path="url(#clip1903)" style="stroke:#000000; stroke-width:2; stroke-opacity:0.1; fill:none" points="
  161.394,713.924 2321.26,713.924 
  "/>
<polyline clip-path="url(#clip1903)" style="stroke:#000000; stroke-width:2; stroke-opacity:0.1; fill:none" points="
  161.394,530.022 2321.26,530.022 
  "/>
<polyline clip-path="url(#clip1903)" style="stroke:#000000; stroke-width:2; stroke-opacity:0.1; fill:none" points="
  161.394,346.12 2321.26,346.12 
  "/>
<polyline clip-path="url(#clip1903)" style="stroke:#000000; stroke-width:2; stroke-opacity:0.1; fill:none" points="
  161.394,162.218 2321.26,162.218 
  "/>
<polyline clip-path="url(#clip1901)" style="stroke:#000000; stroke-width:4; stroke-opacity:1; fill:none" points="
  161.394,1111.86 2321.26,1111.86 
  "/>
<polyline clip-path="url(#clip1901)" style="stroke:#000000; stroke-width:4; stroke-opacity:1; fill:none" points="
  161.394,1111.86 161.394,47.2441 
  "/>
<polyline clip-path="url(#clip1901)" style="stroke:#000000; stroke-width:4; stroke-opacity:1; fill:none" points="
  233.464,1111.86 233.464,1095.89 
  "/>
<polyline clip-path="url(#clip1901)" style="stroke:#000000; stroke-width:4; stroke-opacity:1; fill:none" points="
  691.596,1111.86 691.596,1095.89 
  "/>
<polyline clip-path="url(#clip1901)" style="stroke:#000000; stroke-width:4; stroke-opacity:1; fill:none" points="
  1149.73,1111.86 1149.73,1095.89 
  "/>
<polyline clip-path="url(#clip1901)" style="stroke:#000000; stroke-width:4; stroke-opacity:1; fill:none" points="
  1607.86,1111.86 1607.86,1095.89 
  "/>
<polyline clip-path="url(#clip1901)" style="stroke:#000000; stroke-width:4; stroke-opacity:1; fill:none" points="
  2065.99,1111.86 2065.99,1095.89 
  "/>
<polyline clip-path="url(#clip1901)" style="stroke:#000000; stroke-width:4; stroke-opacity:1; fill:none" points="
  161.394,1081.73 193.792,1081.73 
  "/>
<polyline clip-path="url(#clip1901)" style="stroke:#000000; stroke-width:4; stroke-opacity:1; fill:none" points="
  161.394,897.825 193.792,897.825 
  "/>
<polyline clip-path="url(#clip1901)" style="stroke:#000000; stroke-width:4; stroke-opacity:1; fill:none" points="
  161.394,713.924 193.792,713.924 
  "/>
<polyline clip-path="url(#clip1901)" style="stroke:#000000; stroke-width:4; stroke-opacity:1; fill:none" points="
  161.394,530.022 193.792,530.022 
  "/>
<polyline clip-path="url(#clip1901)" style="stroke:#000000; stroke-width:4; stroke-opacity:1; fill:none" points="
  161.394,346.12 193.792,346.12 
  "/>
<polyline clip-path="url(#clip1901)" style="stroke:#000000; stroke-width:4; stroke-opacity:1; fill:none" points="
  161.394,162.218 193.792,162.218 
  "/>
<g clip-path="url(#clip1901)">
<text style="fill:#000000; fill-opacity:1; font-family:Arial,Helvetica Neue,Helvetica,sans-serif; font-size:48px; text-anchor:middle;" transform="rotate(0, 233.464, 1165.86)" x="233.464" y="1165.86">0.00</text>
</g>
<g clip-path="url(#clip1901)">
<text style="fill:#000000; fill-opacity:1; font-family:Arial,Helvetica Neue,Helvetica,sans-serif; font-size:48px; text-anchor:middle;" transform="rotate(0, 691.596, 1165.86)" x="691.596" y="1165.86">0.25</text>
</g>
<g clip-path="url(#clip1901)">
<text style="fill:#000000; fill-opacity:1; font-family:Arial,Helvetica Neue,Helvetica,sans-serif; font-size:48px; text-anchor:middle;" transform="rotate(0, 1149.73, 1165.86)" x="1149.73" y="1165.86">0.50</text>
</g>
<g clip-path="url(#clip1901)">
<text style="fill:#000000; fill-opacity:1; font-family:Arial,Helvetica Neue,Helvetica,sans-serif; font-size:48px; text-anchor:middle;" transform="rotate(0, 1607.86, 1165.86)" x="1607.86" y="1165.86">0.75</text>
</g>
<g clip-path="url(#clip1901)">
<text style="fill:#000000; fill-opacity:1; font-family:Arial,Helvetica Neue,Helvetica,sans-serif; font-size:48px; text-anchor:middle;" transform="rotate(0, 2065.99, 1165.86)" x="2065.99" y="1165.86">1.00</text>
</g>
<g clip-path="url(#clip1901)">
<text style="fill:#000000; fill-opacity:1; font-family:Arial,Helvetica Neue,Helvetica,sans-serif; font-size:48px; text-anchor:end;" transform="rotate(0, 137.394, 1099.23)" x="137.394" y="1099.23">0.0</text>
</g>
<g clip-path="url(#clip1901)">
<text style="fill:#000000; fill-opacity:1; font-family:Arial,Helvetica Neue,Helvetica,sans-serif; font-size:48px; text-anchor:end;" transform="rotate(0, 137.394, 915.325)" x="137.394" y="915.325">0.5</text>
</g>
<g clip-path="url(#clip1901)">
<text style="fill:#000000; fill-opacity:1; font-family:Arial,Helvetica Neue,Helvetica,sans-serif; font-size:48px; text-anchor:end;" transform="rotate(0, 137.394, 731.424)" x="137.394" y="731.424">1.0</text>
</g>
<g clip-path="url(#clip1901)">
<text style="fill:#000000; fill-opacity:1; font-family:Arial,Helvetica Neue,Helvetica,sans-serif; font-size:48px; text-anchor:end;" transform="rotate(0, 137.394, 547.522)" x="137.394" y="547.522">1.5</text>
</g>
<g clip-path="url(#clip1901)">
<text style="fill:#000000; fill-opacity:1; font-family:Arial,Helvetica Neue,Helvetica,sans-serif; font-size:48px; text-anchor:end;" transform="rotate(0, 137.394, 363.62)" x="137.394" y="363.62">2.0</text>
</g>
<g clip-path="url(#clip1901)">
<text style="fill:#000000; fill-opacity:1; font-family:Arial,Helvetica Neue,Helvetica,sans-serif; font-size:48px; text-anchor:end;" transform="rotate(0, 137.394, 179.718)" x="137.394" y="179.718">2.5</text>
</g>
<polygon clip-path="url(#clip1903)" points="
233.464,1081.73 251.789,1081.73 270.114,1081.73 288.44,1081.73 306.765,1081.73 325.09,1081.72 343.415,1081.72 361.741,1081.7 380.066,1081.66 398.391,1081.6 
  416.717,1081.5 435.042,1081.34 453.367,1081.1 471.692,1080.75 490.018,1080.25 508.343,1079.57 526.668,1078.66 544.994,1077.46 563.319,1075.93 581.644,1074 
  599.969,1071.6 618.295,1068.66 636.62,1065.1 654.945,1060.85 673.271,1055.81 691.596,1049.91 709.921,1043.05 728.246,1035.16 746.572,1026.16 764.897,1015.95 
  783.222,1004.47 801.548,991.651 819.873,977.418 838.198,961.721 856.523,944.513 874.849,925.756 893.174,905.428 911.499,883.516 929.825,860.024 948.15,834.969 
  966.475,808.384 984.8,780.319 1003.13,750.844 1021.45,720.042 1039.78,688.018 1058.1,654.894 1076.43,620.809 1094.75,585.923 1113.08,550.411 1131.4,514.467 
  1149.73,478.299 1168.05,442.133 1186.38,406.206 1204.7,370.769 1223.03,336.083 1241.35,302.419 1259.68,270.053 1278,239.266 1296.33,210.34 1314.66,183.556 
  1332.98,159.192 1351.31,137.518 1369.63,118.793 1387.96,103.265 1406.28,91.1624 1424.61,82.6943 1442.93,78.0457 1461.26,77.3747 1479.58,80.8082 1497.91,88.4393 
  1516.23,100.324 1534.56,116.478 1552.88,136.873 1571.21,161.439 1589.53,190.054 1607.86,222.549 1626.19,258.706 1644.51,298.255 1662.84,340.876 1681.16,386.197 
  1699.49,433.801 1717.81,483.224 1736.14,533.96 1754.46,585.466 1772.79,637.166 1791.11,688.465 1809.44,738.746 1827.76,787.393 1846.09,833.794 1864.41,877.359 
  1882.74,917.536 1901.06,953.827 1919.39,985.811 1937.72,1013.16 1956.04,1035.69 1974.37,1053.34 1992.69,1066.25 2011.02,1074.78 2029.34,1079.54 2047.67,1081.44 
  2065.99,1081.73 2065.99,1081.73 2047.67,1081.73 2029.34,1081.73 2011.02,1081.73 1992.69,1081.73 1974.37,1081.73 1956.04,1081.73 1937.72,1081.73 1919.39,1081.73 
  1901.06,1081.73 1882.74,1081.73 1864.41,1081.73 1846.09,1081.73 1827.76,1081.73 1809.44,1081.73 1791.11,1081.73 1772.79,1081.73 1754.46,1081.73 1736.14,1081.73 
  1717.81,1081.73 1699.49,1081.73 1681.16,1081.73 1662.84,1081.73 1644.51,1081.73 1626.19,1081.73 1607.86,1081.73 1589.53,1081.73 1571.21,1081.73 1552.88,1081.73 
  1534.56,1081.73 1516.23,1081.73 1497.91,1081.73 1479.58,1081.73 1461.26,1081.73 1442.93,1081.73 1424.61,1081.73 1406.28,1081.73 1387.96,1081.73 1369.63,1081.73 
  1351.31,1081.73 1332.98,1081.73 1314.66,1081.73 1296.33,1081.73 1278,1081.73 1259.68,1081.73 1241.35,1081.73 1223.03,1081.73 1204.7,1081.73 1186.38,1081.73 
  1168.05,1081.73 1149.73,1081.73 1131.4,1081.73 1113.08,1081.73 1094.75,1081.73 1076.43,1081.73 1058.1,1081.73 1039.78,1081.73 1021.45,1081.73 1003.13,1081.73 
  984.8,1081.73 966.475,1081.73 948.15,1081.73 929.825,1081.73 911.499,1081.73 893.174,1081.73 874.849,1081.73 856.523,1081.73 838.198,1081.73 819.873,1081.73 
  801.548,1081.73 783.222,1081.73 764.897,1081.73 746.572,1081.73 728.246,1081.73 709.921,1081.73 691.596,1081.73 673.271,1081.73 654.945,1081.73 636.62,1081.73 
  618.295,1081.73 599.969,1081.73 581.644,1081.73 563.319,1081.73 544.994,1081.73 526.668,1081.73 508.343,1081.73 490.018,1081.73 471.692,1081.73 453.367,1081.73 
  435.042,1081.73 416.717,1081.73 398.391,1081.73 380.066,1081.73 361.741,1081.73 343.415,1081.73 325.09,1081.73 306.765,1081.73 288.44,1081.73 270.114,1081.73 
  251.789,1081.73 233.464,1081.73 
  " fill="#ffa500" fill-rule="evenodd" fill-opacity="0.5"/>
<polyline clip-path="url(#clip1903)" style="stroke:#009af9; stroke-width:4; stroke-opacity:1; fill:none" points="
  233.464,1081.73 251.789,1081.73 270.114,1081.73 288.44,1081.73 306.765,1081.73 325.09,1081.72 343.415,1081.72 361.741,1081.7 380.066,1081.66 398.391,1081.6 
  416.717,1081.5 435.042,1081.34 453.367,1081.1 471.692,1080.75 490.018,1080.25 508.343,1079.57 526.668,1078.66 544.994,1077.46 563.319,1075.93 581.644,1074 
  599.969,1071.6 618.295,1068.66 636.62,1065.1 654.945,1060.85 673.271,1055.81 691.596,1049.91 709.921,1043.05 728.246,1035.16 746.572,1026.16 764.897,1015.95 
  783.222,1004.47 801.548,991.651 819.873,977.418 838.198,961.721 856.523,944.513 874.849,925.756 893.174,905.428 911.499,883.516 929.825,860.024 948.15,834.969 
  966.475,808.384 984.8,780.319 1003.13,750.844 1021.45,720.042 1039.78,688.018 1058.1,654.894 1076.43,620.809 1094.75,585.923 1113.08,550.411 1131.4,514.467 
  1149.73,478.299 1168.05,442.133 1186.38,406.206 1204.7,370.769 1223.03,336.083 1241.35,302.419 1259.68,270.053 1278,239.266 1296.33,210.34 1314.66,183.556 
  1332.98,159.192 1351.31,137.518 1369.63,118.793 1387.96,103.265 1406.28,91.1624 1424.61,82.6943 1442.93,78.0457 1461.26,77.3747 1479.58,80.8082 1497.91,88.4393 
  1516.23,100.324 1534.56,116.478 1552.88,136.873 1571.21,161.439 1589.53,190.054 1607.86,222.549 1626.19,258.706 1644.51,298.255 1662.84,340.876 1681.16,386.197 
  1699.49,433.801 1717.81,483.224 1736.14,533.96 1754.46,585.466 1772.79,637.166 1791.11,688.465 1809.44,738.746 1827.76,787.393 1846.09,833.794 1864.41,877.359 
  1882.74,917.536 1901.06,953.827 1919.39,985.811 1937.72,1013.16 1956.04,1035.69 1974.37,1053.34 1992.69,1066.25 2011.02,1074.78 2029.34,1079.54 2047.67,1081.44 
  2065.99,1081.73 
  "/>
<polyline clip-path="url(#clip1903)" style="stroke:#e26f46; stroke-width:4; stroke-opacity:1; fill:none" points="
  233.464,1081.58 251.789,1081.54 270.114,1081.49 288.44,1081.42 306.765,1081.33 325.09,1081.22 343.415,1081.09 361.741,1080.92 380.066,1080.7 398.391,1080.44 
  416.717,1080.12 435.042,1079.72 453.367,1079.24 471.692,1078.64 490.018,1077.93 508.343,1077.06 526.668,1076.02 544.994,1074.78 563.319,1073.3 581.644,1071.54 
  599.969,1069.46 618.295,1067.02 636.62,1064.16 654.945,1060.82 673.271,1056.95 691.596,1052.48 709.921,1047.33 728.246,1041.43 746.572,1034.71 764.897,1027.08 
  783.222,1018.46 801.548,1008.77 819.873,997.912 838.198,985.82 856.523,972.412 874.849,957.614 893.174,941.363 911.499,923.603 929.825,904.291 948.15,883.395 
  966.475,860.904 984.8,836.82 1003.13,811.169 1021.45,783.996 1039.78,755.371 1058.1,725.389 1076.43,694.17 1094.75,661.858 1113.08,628.627 1131.4,594.671 
  1149.73,560.212 1168.05,525.491 1186.38,490.772 1204.7,456.334 1223.03,422.47 1241.35,389.48 1259.68,357.674 1278,327.359 1296.33,298.839 1314.66,272.409 
  1332.98,248.347 1351.31,226.916 1369.63,208.353 1387.96,192.865 1406.28,180.629 1424.61,171.786 1442.93,166.439 1461.26,164.649 1479.58,166.439 1497.91,171.786 
  1516.23,180.629 1534.56,192.865 1552.88,208.353 1571.21,226.916 1589.53,248.347 1607.86,272.409 1626.19,298.839 1644.51,327.359 1662.84,357.674 1681.16,389.48 
  1699.49,422.47 1717.81,456.334 1736.14,490.772 1754.46,525.491 1772.79,560.212 1791.11,594.671 1809.44,628.627 1827.76,661.858 1846.09,694.17 1864.41,725.389 
  1882.74,755.371 1901.06,783.996 1919.39,811.169 1937.72,836.82 1956.04,860.904 1974.37,883.395 1992.69,904.291 2011.02,923.603 2029.34,941.363 2047.67,957.614 
  2065.99,972.412 
  "/>
<polyline clip-path="url(#clip1903)" style="stroke:#3da44d; stroke-width:4; stroke-opacity:1; fill:none" points="
  222.522,1081.73 232.762,1081.73 243.001,1081.72 253.24,1081.72 263.479,1081.71 273.719,1081.7 283.958,1081.67 294.197,1081.64 304.436,1081.58 314.675,1081.49 
  324.915,1081.36 335.154,1081.19 345.393,1080.97 355.632,1080.71 365.872,1080.39 376.111,1080.05 386.35,1079.7 396.589,1079.35 406.829,1079.02 417.068,1078.74 
  427.307,1078.51 437.546,1078.33 447.786,1078.19 458.025,1078.08 468.264,1077.97 478.503,1077.85 488.743,1077.69 498.982,1077.5 509.221,1077.27 519.46,1076.97 
  529.7,1076.62 539.939,1076.18 550.178,1075.64 560.417,1074.98 570.657,1074.19 580.896,1073.23 591.135,1072.08 601.374,1070.69 611.614,1069.02 621.853,1067 
  632.092,1064.56 642.331,1061.62 652.57,1058.11 662.81,1053.97 673.049,1049.18 683.288,1043.77 693.527,1037.82 703.767,1031.45 714.006,1024.78 724.245,1017.97 
  734.484,1011.13 744.724,1004.35 754.963,997.627 765.202,990.917 775.441,984.102 785.681,977.03 795.92,969.543 806.159,961.51 816.398,952.86 826.638,943.598 
  836.877,933.808 847.116,923.632 857.355,913.239 867.595,902.785 877.834,892.383 888.073,882.085 898.312,871.888 908.552,861.759 918.791,851.662 929.03,841.585 
  939.269,831.554 949.509,821.619 959.748,811.827 969.987,802.182 980.226,792.603 990.466,782.905 1000.7,772.797 1010.94,761.908 1021.18,749.823 1031.42,736.141 
  1041.66,720.524 1051.9,702.746 1062.14,682.728 1072.38,660.564 1082.62,636.528 1092.86,611.063 1103.1,584.747 1113.34,558.226 1123.58,532.136 1133.81,507.008 
  1144.05,483.19 1154.29,460.794 1164.53,439.706 1174.77,419.637 1185.01,400.233 1195.25,381.191 1205.49,362.375 1215.73,343.869 1225.97,325.969 1236.21,309.104 
  1246.45,293.706 1256.69,280.073 1266.93,268.265 1277.16,258.063 1287.4,249.005 1297.64,240.493 1307.88,231.933 1318.12,222.874 1328.36,213.112 1338.6,202.726 
  1348.84,192.049 1359.08,181.585 1369.32,171.89 1379.56,163.464 1389.8,156.654 1400.04,151.612 1410.27,148.286 1420.51,146.45 1430.75,145.763 1440.99,145.823 
  1451.23,146.235 1461.47,146.657 1471.71,146.842 1481.95,146.669 1492.19,146.154 1502.43,145.454 1512.67,144.846 1522.91,144.693 1533.15,145.4 1543.38,147.36 
  1553.62,150.903 1563.86,156.261 1574.1,163.554 1584.34,172.786 1594.58,183.871 1604.82,196.662 1615.06,210.983 1625.3,226.672 1635.54,243.605 1645.78,261.724 
  1656.02,281.047 1666.26,301.669 1676.49,323.742 1686.73,347.436 1696.97,372.891 1707.21,400.17 1717.45,429.217 1727.69,459.839 1737.93,491.716 1748.17,524.437 
  1758.41,557.547 1768.65,590.614 1778.89,623.268 1789.13,655.246 1799.37,686.395 1809.6,716.674 1819.84,746.121 1830.08,774.825 1840.32,802.88 1850.56,830.35 
  1860.8,857.228 1871.04,883.423 1881.28,908.754 1891.52,932.958 1901.76,955.728 1912,976.747 1922.24,995.734 1932.48,1012.48 1942.72,1026.89 1952.95,1038.96 
  1963.19,1048.81 1973.43,1056.63 1983.67,1062.67 1993.91,1067.23 2004.15,1070.58 2014.39,1073 2024.63,1074.72 2034.87,1075.95 2045.11,1076.85 2055.35,1077.54 
  2065.59,1078.12 2075.83,1078.62 2086.06,1079.1 2096.3,1079.54 2106.54,1079.96 2116.78,1080.34 2127.02,1080.68 2137.26,1080.96 2147.5,1081.18 2157.74,1081.36 
  2167.98,1081.48 2178.22,1081.57 2188.46,1081.63 2198.7,1081.67 2208.94,1081.7 2219.17,1081.71 2229.41,1081.72 2239.65,1081.72 2249.89,1081.73 2260.13,1081.73 
  
  "/>
<polyline clip-path="url(#clip1903)" style="stroke:#c271d2; stroke-width:4; stroke-opacity:1; fill:none" stroke-dasharray="16, 10" points="
  946.738,107573 946.738,-106414 
  "/>
<polyline clip-path="url(#clip1903)" style="stroke:#ac8d18; stroke-width:4; stroke-opacity:1; fill:none" stroke-dasharray="16, 10" points="
  1881.73,107573 1881.73,-106414 
  "/>
<polygon clip-path="url(#clip1901)" points="
1538.51,493.644 2249.26,493.644 2249.26,130.764 1538.51,130.764 
  " fill="#ffffff" fill-rule="evenodd" fill-opacity="1"/>
<polyline clip-path="url(#clip1901)" style="stroke:#000000; stroke-width:4; stroke-opacity:1; fill:none" points="
  1538.51,493.644 2249.26,493.644 2249.26,130.764 1538.51,130.764 1538.51,493.644 
  "/>
<polygon clip-path="url(#clip1901)" points="
1562.51,215.436 1706.51,215.436 1706.51,167.052 1562.51,167.052 1562.51,215.436 
  " fill="#ffa500" fill-rule="evenodd" fill-opacity="0.5"/>
<polyline clip-path="url(#clip1901)" style="stroke:#009af9; stroke-width:4; stroke-opacity:1; fill:none" points="
  1562.51,167.052 1706.51,167.052 
  "/>
<g clip-path="url(#clip1901)">
<text style="fill:#000000; fill-opacity:1; font-family:Arial,Helvetica Neue,Helvetica,sans-serif; font-size:48px; text-anchor:start;" transform="rotate(0, 1730.51, 208.744)" x="1730.51" y="208.744">Conjugate solution</text>
</g>
<polyline clip-path="url(#clip1901)" style="stroke:#e26f46; stroke-width:4; stroke-opacity:1; fill:none" points="
  1562.51,251.724 1706.51,251.724 
  "/>
<g clip-path="url(#clip1901)">
<text style="fill:#000000; fill-opacity:1; font-family:Arial,Helvetica Neue,Helvetica,sans-serif; font-size:48px; text-anchor:start;" transform="rotate(0, 1730.51, 269.224)" x="1730.51" y="269.224">Normal approximation</text>
</g>
<polyline clip-path="url(#clip1901)" style="stroke:#3da44d; stroke-width:4; stroke-opacity:1; fill:none" points="
  1562.51,312.204 1706.51,312.204 
  "/>
<g clip-path="url(#clip1901)">
<text style="fill:#000000; fill-opacity:1; font-family:Arial,Helvetica Neue,Helvetica,sans-serif; font-size:48px; text-anchor:start;" transform="rotate(0, 1730.51, 329.704)" x="1730.51" y="329.704">Turing chain</text>
</g>
<polyline clip-path="url(#clip1901)" style="stroke:#c271d2; stroke-width:4; stroke-opacity:1; fill:none" stroke-dasharray="16, 10" points="
  1562.51,372.684 1706.51,372.684 
  "/>
<g clip-path="url(#clip1901)">
<text style="fill:#000000; fill-opacity:1; font-family:Arial,Helvetica Neue,Helvetica,sans-serif; font-size:48px; text-anchor:start;" transform="rotate(0, 1730.51, 390.184)" x="1730.51" y="390.184">hpd lower bound</text>
</g>
<polyline clip-path="url(#clip1901)" style="stroke:#ac8d18; stroke-width:4; stroke-opacity:1; fill:none" stroke-dasharray="16, 10" points="
  1562.51,433.164 1706.51,433.164 
  "/>
<g clip-path="url(#clip1901)">
<text style="fill:#000000; fill-opacity:1; font-family:Arial,Helvetica Neue,Helvetica,sans-serif; font-size:48px; text-anchor:start;" transform="rotate(0, 1730.51, 450.664)" x="1730.51" y="450.664">hpd upper bound</text>
</g>
</svg>
