<?xml version="1.0" encoding="utf-8"?>
<svg xmlns="http://www.w3.org/2000/svg" xmlns:xlink="http://www.w3.org/1999/xlink" width="600" height="400" viewBox="0 0 2400 1600">
<defs>
  <clipPath id="clip4500">
    <rect x="0" y="0" width="2000" height="2000"/>
  </clipPath>
</defs>
<defs>
  <clipPath id="clip4501">
    <rect x="0" y="0" width="2400" height="1600"/>
  </clipPath>
</defs>
<polygon clip-path="url(#clip4501)" points="
0,1600 2400,1600 2400,0 0,0 
  " fill="#ffffff" fill-rule="evenodd" fill-opacity="1"/>
<defs>
  <clipPath id="clip4502">
    <rect x="480" y="0" width="1681" height="1600"/>
  </clipPath>
</defs>
<polygon clip-path="url(#clip4501)" points="
121.251,1503.47 2321.26,1503.47 2321.26,47.2441 121.251,47.2441 
  " fill="#ffffff" fill-rule="evenodd" fill-opacity="1"/>
<defs>
  <clipPath id="clip4503">
    <rect x="121" y="47" width="2201" height="1457"/>
  </clipPath>
</defs>
<polyline clip-path="url(#clip4503)" style="stroke:#000000; stroke-width:2; stroke-opacity:0.1; fill:none" points="
  184.083,1503.47 184.083,47.2441 
  "/>
<polyline clip-path="url(#clip4503)" style="stroke:#000000; stroke-width:2; stroke-opacity:0.1; fill:none" points="
  666.301,1503.47 666.301,47.2441 
  "/>
<polyline clip-path="url(#clip4503)" style="stroke:#000000; stroke-width:2; stroke-opacity:0.1; fill:none" points="
  1148.52,1503.47 1148.52,47.2441 
  "/>
<polyline clip-path="url(#clip4503)" style="stroke:#000000; stroke-width:2; stroke-opacity:0.1; fill:none" points="
  1630.74,1503.47 1630.74,47.2441 
  "/>
<polyline clip-path="url(#clip4503)" style="stroke:#000000; stroke-width:2; stroke-opacity:0.1; fill:none" points="
  2112.96,1503.47 2112.96,47.2441 
  "/>
<polyline clip-path="url(#clip4503)" style="stroke:#000000; stroke-width:2; stroke-opacity:0.1; fill:none" points="
  121.251,1462.26 2321.26,1462.26 
  "/>
<polyline clip-path="url(#clip4503)" style="stroke:#000000; stroke-width:2; stroke-opacity:0.1; fill:none" points="
  121.251,1021.6 2321.26,1021.6 
  "/>
<polyline clip-path="url(#clip4503)" style="stroke:#000000; stroke-width:2; stroke-opacity:0.1; fill:none" points="
  121.251,580.938 2321.26,580.938 
  "/>
<polyline clip-path="url(#clip4503)" style="stroke:#000000; stroke-width:2; stroke-opacity:0.1; fill:none" points="
  121.251,140.277 2321.26,140.277 
  "/>
<polyline clip-path="url(#clip4501)" style="stroke:#000000; stroke-width:4; stroke-opacity:1; fill:none" points="
  121.251,1503.47 2321.26,1503.47 
  "/>
<polyline clip-path="url(#clip4501)" style="stroke:#000000; stroke-width:4; stroke-opacity:1; fill:none" points="
  121.251,1503.47 121.251,47.2441 
  "/>
<polyline clip-path="url(#clip4501)" style="stroke:#000000; stroke-width:4; stroke-opacity:1; fill:none" points="
  184.083,1503.47 184.083,1481.63 
  "/>
<polyline clip-path="url(#clip4501)" style="stroke:#000000; stroke-width:4; stroke-opacity:1; fill:none" points="
  666.301,1503.47 666.301,1481.63 
  "/>
<polyline clip-path="url(#clip4501)" style="stroke:#000000; stroke-width:4; stroke-opacity:1; fill:none" points="
  1148.52,1503.47 1148.52,1481.63 
  "/>
<polyline clip-path="url(#clip4501)" style="stroke:#000000; stroke-width:4; stroke-opacity:1; fill:none" points="
  1630.74,1503.47 1630.74,1481.63 
  "/>
<polyline clip-path="url(#clip4501)" style="stroke:#000000; stroke-width:4; stroke-opacity:1; fill:none" points="
  2112.96,1503.47 2112.96,1481.63 
  "/>
<polyline clip-path="url(#clip4501)" style="stroke:#000000; stroke-width:4; stroke-opacity:1; fill:none" points="
  121.251,1462.26 154.251,1462.26 
  "/>
<polyline clip-path="url(#clip4501)" style="stroke:#000000; stroke-width:4; stroke-opacity:1; fill:none" points="
  121.251,1021.6 154.251,1021.6 
  "/>
<polyline clip-path="url(#clip4501)" style="stroke:#000000; stroke-width:4; stroke-opacity:1; fill:none" points="
  121.251,580.938 154.251,580.938 
  "/>
<polyline clip-path="url(#clip4501)" style="stroke:#000000; stroke-width:4; stroke-opacity:1; fill:none" points="
  121.251,140.277 154.251,140.277 
  "/>
<g clip-path="url(#clip4501)">
<text style="fill:#000000; fill-opacity:1; font-family:Arial,Helvetica Neue,Helvetica,sans-serif; font-size:48px; text-anchor:middle;" transform="rotate(0, 184.083, 1557.47)" x="184.083" y="1557.47">0.00</text>
</g>
<g clip-path="url(#clip4501)">
<text style="fill:#000000; fill-opacity:1; font-family:Arial,Helvetica Neue,Helvetica,sans-serif; font-size:48px; text-anchor:middle;" transform="rotate(0, 666.301, 1557.47)" x="666.301" y="1557.47">0.25</text>
</g>
<g clip-path="url(#clip4501)">
<text style="fill:#000000; fill-opacity:1; font-family:Arial,Helvetica Neue,Helvetica,sans-serif; font-size:48px; text-anchor:middle;" transform="rotate(0, 1148.52, 1557.47)" x="1148.52" y="1557.47">0.50</text>
</g>
<g clip-path="url(#clip4501)">
<text style="fill:#000000; fill-opacity:1; font-family:Arial,Helvetica Neue,Helvetica,sans-serif; font-size:48px; text-anchor:middle;" transform="rotate(0, 1630.74, 1557.47)" x="1630.74" y="1557.47">0.75</text>
</g>
<g clip-path="url(#clip4501)">
<text style="fill:#000000; fill-opacity:1; font-family:Arial,Helvetica Neue,Helvetica,sans-serif; font-size:48px; text-anchor:middle;" transform="rotate(0, 2112.96, 1557.47)" x="2112.96" y="1557.47">1.00</text>
</g>
<g clip-path="url(#clip4501)">
<text style="fill:#000000; fill-opacity:1; font-family:Arial,Helvetica Neue,Helvetica,sans-serif; font-size:48px; text-anchor:end;" transform="rotate(0, 97.2505, 1479.76)" x="97.2505" y="1479.76">0</text>
</g>
<g clip-path="url(#clip4501)">
<text style="fill:#000000; fill-opacity:1; font-family:Arial,Helvetica Neue,Helvetica,sans-serif; font-size:48px; text-anchor:end;" transform="rotate(0, 97.2505, 1039.1)" x="97.2505" y="1039.1">1</text>
</g>
<g clip-path="url(#clip4501)">
<text style="fill:#000000; fill-opacity:1; font-family:Arial,Helvetica Neue,Helvetica,sans-serif; font-size:48px; text-anchor:end;" transform="rotate(0, 97.2505, 598.438)" x="97.2505" y="598.438">2</text>
</g>
<g clip-path="url(#clip4501)">
<text style="fill:#000000; fill-opacity:1; font-family:Arial,Helvetica Neue,Helvetica,sans-serif; font-size:48px; text-anchor:end;" transform="rotate(0, 97.2505, 157.777)" x="97.2505" y="157.777">3</text>
</g>
<polygon clip-path="url(#clip4503)" points="
184.083,1462.26 203.371,1462.26 222.66,1462.26 241.949,1462.26 261.238,1462.26 280.526,1462.26 299.815,1462.25 319.104,1462.23 338.392,1462.19 357.681,1462.11 
  376.97,1461.99 396.259,1461.8 415.547,1461.51 434.836,1461.08 454.125,1460.49 473.414,1459.67 492.702,1458.58 511.991,1457.15 531.28,1455.32 550.568,1453.01 
  569.857,1450.13 589.146,1446.61 608.435,1442.34 627.723,1437.24 647.012,1431.21 666.301,1424.14 685.59,1415.92 704.878,1406.47 724.167,1395.68 743.456,1383.46 
  762.744,1369.7 782.033,1354.34 801.322,1337.29 820.611,1318.48 839.899,1297.87 859.188,1275.39 878.477,1251.04 897.766,1224.79 917.054,1196.64 936.343,1166.62 
  955.632,1134.77 974.92,1101.15 994.209,1065.83 1013.5,1028.93 1032.79,990.562 1052.08,950.876 1071.36,910.04 1090.65,868.244 1109.94,825.697 1129.23,782.633 
  1148.52,739.301 1167.81,695.97 1187.1,652.926 1206.39,610.47 1225.67,568.914 1244.96,528.581 1264.25,489.804 1283.54,452.918 1302.83,418.262 1322.12,386.173 
  1341.41,356.982 1360.69,331.015 1379.98,308.581 1399.27,289.977 1418.56,275.477 1437.85,265.331 1457.14,259.762 1476.43,258.958 1495.72,263.072 1515,272.214 
  1534.29,286.453 1553.58,305.807 1572.87,330.243 1592.16,359.674 1611.45,393.957 1630.74,432.89 1650.03,476.209 1669.31,523.593 1688.6,574.655 1707.89,628.954 
  1727.18,685.988 1746.47,745.201 1765.76,805.987 1785.05,867.695 1804.34,929.638 1823.62,991.097 1842.91,1051.34 1862.2,1109.62 1881.49,1165.21 1900.78,1217.41 
  1920.07,1265.54 1939.36,1309.02 1958.65,1347.34 1977.93,1380.12 1997.22,1407.1 2016.51,1428.25 2035.8,1443.72 2055.09,1453.94 2074.38,1459.64 2093.67,1461.91 
  2112.96,1462.26 2112.96,1462.26 2093.67,1462.26 2074.38,1462.26 2055.09,1462.26 2035.8,1462.26 2016.51,1462.26 1997.22,1462.26 1977.93,1462.26 1958.65,1462.26 
  1939.36,1462.26 1920.07,1462.26 1900.78,1462.26 1881.49,1462.26 1862.2,1462.26 1842.91,1462.26 1823.62,1462.26 1804.34,1462.26 1785.05,1462.26 1765.76,1462.26 
  1746.47,1462.26 1727.18,1462.26 1707.89,1462.26 1688.6,1462.26 1669.31,1462.26 1650.03,1462.26 1630.74,1462.26 1611.45,1462.26 1592.16,1462.26 1572.87,1462.26 
  1553.58,1462.26 1534.29,1462.26 1515,1462.26 1495.72,1462.26 1476.43,1462.26 1457.14,1462.26 1437.85,1462.26 1418.56,1462.26 1399.27,1462.26 1379.98,1462.26 
  1360.69,1462.26 1341.41,1462.26 1322.12,1462.26 1302.83,1462.26 1283.54,1462.26 1264.25,1462.26 1244.96,1462.26 1225.67,1462.26 1206.39,1462.26 1187.1,1462.26 
  1167.81,1462.26 1148.52,1462.26 1129.23,1462.26 1109.94,1462.26 1090.65,1462.26 1071.36,1462.26 1052.08,1462.26 1032.79,1462.26 1013.5,1462.26 994.209,1462.26 
  974.92,1462.26 955.632,1462.26 936.343,1462.26 917.054,1462.26 897.766,1462.26 878.477,1462.26 859.188,1462.26 839.899,1462.26 820.611,1462.26 801.322,1462.26 
  782.033,1462.26 762.744,1462.26 743.456,1462.26 724.167,1462.26 704.878,1462.26 685.59,1462.26 666.301,1462.26 647.012,1462.26 627.723,1462.26 608.435,1462.26 
  589.146,1462.26 569.857,1462.26 550.568,1462.26 531.28,1462.26 511.991,1462.26 492.702,1462.26 473.414,1462.26 454.125,1462.26 434.836,1462.26 415.547,1462.26 
  396.259,1462.26 376.97,1462.26 357.681,1462.26 338.392,1462.26 319.104,1462.26 299.815,1462.26 280.526,1462.26 261.238,1462.26 241.949,1462.26 222.66,1462.26 
  203.371,1462.26 184.083,1462.26 
  " fill="#ffa500" fill-rule="evenodd" fill-opacity="0.5"/>
<polyline clip-path="url(#clip4503)" style="stroke:#009af9; stroke-width:4; stroke-opacity:1; fill:none" points="
  184.083,1462.26 203.371,1462.26 222.66,1462.26 241.949,1462.26 261.238,1462.26 280.526,1462.26 299.815,1462.25 319.104,1462.23 338.392,1462.19 357.681,1462.11 
  376.97,1461.99 396.259,1461.8 415.547,1461.51 434.836,1461.08 454.125,1460.49 473.414,1459.67 492.702,1458.58 511.991,1457.15 531.28,1455.32 550.568,1453.01 
  569.857,1450.13 589.146,1446.61 608.435,1442.34 627.723,1437.24 647.012,1431.21 666.301,1424.14 685.59,1415.92 704.878,1406.47 724.167,1395.68 743.456,1383.46 
  762.744,1369.7 782.033,1354.34 801.322,1337.29 820.611,1318.48 839.899,1297.87 859.188,1275.39 878.477,1251.04 897.766,1224.79 917.054,1196.64 936.343,1166.62 
  955.632,1134.77 974.92,1101.15 994.209,1065.83 1013.5,1028.93 1032.79,990.562 1052.08,950.876 1071.36,910.04 1090.65,868.244 1109.94,825.697 1129.23,782.633 
  1148.52,739.301 1167.81,695.97 1187.1,652.926 1206.39,610.47 1225.67,568.914 1244.96,528.581 1264.25,489.804 1283.54,452.918 1302.83,418.262 1322.12,386.173 
  1341.41,356.982 1360.69,331.015 1379.98,308.581 1399.27,289.977 1418.56,275.477 1437.85,265.331 1457.14,259.762 1476.43,258.958 1495.72,263.072 1515,272.214 
  1534.29,286.453 1553.58,305.807 1572.87,330.243 1592.16,359.674 1611.45,393.957 1630.74,432.89 1650.03,476.209 1669.31,523.593 1688.6,574.655 1707.89,628.954 
  1727.18,685.988 1746.47,745.201 1765.76,805.987 1785.05,867.695 1804.34,929.638 1823.62,991.097 1842.91,1051.34 1862.2,1109.62 1881.49,1165.21 1900.78,1217.41 
  1920.07,1265.54 1939.36,1309.02 1958.65,1347.34 1977.93,1380.12 1997.22,1407.1 2016.51,1428.25 2035.8,1443.72 2055.09,1453.94 2074.38,1459.64 2093.67,1461.91 
  2112.96,1462.26 
  "/>
<polyline clip-path="url(#clip4503)" style="stroke:#e26f46; stroke-width:4; stroke-opacity:1; fill:none" points="
  184.083,1462.09 203.371,1462.04 222.66,1461.97 241.949,1461.89 261.238,1461.79 280.526,1461.66 299.815,1461.49 319.104,1461.29 338.392,1461.04 357.681,1460.72 
  376.97,1460.33 396.259,1459.86 415.547,1459.28 434.836,1458.57 454.125,1457.71 473.414,1456.67 492.702,1455.43 511.991,1453.94 531.28,1452.16 550.568,1450.05 
  569.857,1447.57 589.146,1444.64 608.435,1441.21 627.723,1437.22 647.012,1432.58 666.301,1427.22 685.59,1421.05 704.878,1413.99 724.167,1405.93 743.456,1396.79 
  762.744,1386.46 782.033,1374.85 801.322,1361.84 820.611,1347.36 839.899,1331.29 859.188,1313.56 878.477,1294.09 897.766,1272.81 917.054,1249.68 936.343,1224.64 
  955.632,1197.69 974.92,1168.84 994.209,1138.11 1013.5,1105.55 1032.79,1071.26 1052.08,1035.34 1071.36,997.933 1090.65,959.221 1109.94,919.406 1129.23,878.724 
  1148.52,837.439 1167.81,795.841 1187.1,754.245 1206.39,712.985 1225.67,672.412 1244.96,632.888 1264.25,594.782 1283.54,558.462 1302.83,524.292 1322.12,492.626 
  1341.41,463.798 1360.69,438.122 1379.98,415.881 1399.27,397.325 1418.56,382.666 1437.85,372.071 1457.14,365.664 1476.43,363.521 1495.72,365.664 1515,372.071 
  1534.29,382.666 1553.58,397.325 1572.87,415.881 1592.16,438.122 1611.45,463.798 1630.74,492.626 1650.03,524.292 1669.31,558.462 1688.6,594.782 1707.89,632.888 
  1727.18,672.412 1746.47,712.985 1765.76,754.245 1785.05,795.841 1804.34,837.439 1823.62,878.724 1842.91,919.406 1862.2,959.221 1881.49,997.933 1900.78,1035.34 
  1920.07,1071.26 1939.36,1105.55 1958.65,1138.11 1977.93,1168.84 1997.22,1197.69 2016.51,1224.64 2035.8,1249.68 2055.09,1272.81 2074.38,1294.09 2093.67,1313.56 
  2112.96,1331.29 
  "/>
<polyline clip-path="url(#clip4503)" style="stroke:#3da44d; stroke-width:4; stroke-opacity:1; fill:none" points="
  183.515,1462.25 193.944,1462.25 204.374,1462.23 214.804,1462.21 225.233,1462.17 235.663,1462.09 246.092,1461.97 256.522,1461.78 266.951,1461.49 277.381,1461.05 
  287.81,1460.44 298.24,1459.6 308.67,1458.51 319.099,1457.14 329.529,1455.51 339.958,1453.66 350.388,1451.65 360.817,1449.59 371.247,1447.62 381.676,1445.88 
  392.106,1444.5 402.535,1443.57 412.965,1443.15 423.395,1443.23 433.824,1443.74 444.254,1444.6 454.683,1445.66 465.113,1446.79 475.542,1447.86 485.972,1448.78 
  496.401,1449.47 506.831,1449.9 517.261,1450.05 527.69,1449.93 538.12,1449.56 548.549,1448.98 558.979,1448.23 569.408,1447.37 579.838,1446.46 590.267,1445.56 
  600.697,1444.72 611.127,1443.99 621.556,1443.35 631.986,1442.76 642.415,1442.14 652.845,1441.36 663.274,1440.25 673.704,1438.62 684.133,1436.32 694.563,1433.21 
  704.992,1429.24 715.422,1424.42 725.852,1418.89 736.281,1412.85 746.711,1406.58 757.14,1400.4 767.57,1394.58 777.999,1389.35 788.429,1384.81 798.858,1380.9 
  809.288,1377.4 819.718,1373.97 830.147,1370.15 840.577,1365.42 851.006,1359.29 861.436,1351.3 871.865,1341.11 882.295,1328.48 892.724,1313.3 903.154,1295.56 
  913.583,1275.31 924.013,1252.69 934.443,1227.84 944.872,1200.99 955.302,1172.39 965.731,1142.35 976.161,1111.28 986.59,1079.67 997.02,1048.09 1007.45,1017.13 
  1017.88,987.402 1028.31,959.413 1038.74,933.535 1049.17,909.942 1059.6,888.579 1070.03,869.168 1080.46,851.231 1090.89,834.152 1101.32,817.247 1111.74,799.838 
  1122.17,781.337 1132.6,761.312 1143.03,739.543 1153.46,716.06 1163.89,691.144 1174.32,665.304 1184.75,639.219 1195.18,613.64 1205.61,589.28 1216.04,566.693 
  1226.47,546.172 1236.9,527.679 1247.33,510.825 1257.76,494.901 1268.19,478.967 1278.62,461.967 1289.05,442.869 1299.48,420.807 1309.91,395.2 1320.34,365.845 
  1330.77,332.984 1341.2,297.313 1351.62,259.972 1362.05,222.467 1372.48,186.56 1382.91,154.109 1393.34,126.874 1403.77,106.314 1414.2,93.3961 1424.63,88.4582 
  1435.06,91.1508 1445.49,100.474 1455.92,114.917 1466.35,132.673 1476.78,151.9 1487.21,170.985 1497.64,188.746 1508.07,204.557 1518.5,218.357 1528.93,230.57 
  1539.36,241.932 1549.79,253.306 1560.22,265.492 1570.65,279.105 1581.07,294.518 1591.5,311.896 1601.93,331.271 1612.36,352.659 1622.79,376.146 1633.22,401.943 
  1643.65,430.369 1654.08,461.776 1664.51,496.435 1674.94,534.418 1685.37,575.508 1695.8,619.163 1706.23,664.561 1716.66,710.703 1727.09,756.563 1737.52,801.246 
  1747.95,844.118 1758.38,884.875 1768.81,923.545 1779.24,960.417 1789.67,995.924 1800.1,1030.52 1810.52,1064.53 1820.95,1098.15 1831.38,1131.31 1841.81,1163.8 
  1852.24,1195.25 1862.67,1225.28 1873.1,1253.46 1883.53,1279.48 1893.96,1303.09 1904.39,1324.17 1914.82,1342.7 1925.25,1358.75 1935.68,1372.49 1946.11,1384.13 
  1956.54,1393.92 1966.97,1402.17 1977.4,1409.15 1987.83,1415.16 1998.26,1420.43 2008.69,1425.19 2019.12,1429.58 2029.55,1433.71 2039.97,1437.63 2050.4,1441.33 
  2060.83,1444.8 2071.26,1447.99 2081.69,1450.85 2092.12,1453.36 2102.55,1455.49 2112.98,1457.25 2123.41,1458.65 2133.84,1459.73 2144.27,1460.54 2154.7,1461.13 
  2165.13,1461.54 2175.56,1461.81 2185.99,1461.99 2196.42,1462.1 2206.85,1462.17 2217.28,1462.21 2227.71,1462.23 2238.14,1462.25 2248.57,1462.25 2259,1462.25 
  
  "/>
<polyline clip-path="url(#clip4503)" style="stroke:#c271d2; stroke-width:4; stroke-opacity:1; fill:none" stroke-dasharray="16, 10" points="
  934.133,147127 934.133,-145576 
  "/>
<polyline clip-path="url(#clip4503)" style="stroke:#ac8d18; stroke-width:4; stroke-opacity:1; fill:none" stroke-dasharray="16, 10" points="
  1835.26,147127 1835.26,-145576 
  "/>
<polygon clip-path="url(#clip4501)" points="
1538.51,493.644 2249.26,493.644 2249.26,130.764 1538.51,130.764 
  " fill="#ffffff" fill-rule="evenodd" fill-opacity="1"/>
<polyline clip-path="url(#clip4501)" style="stroke:#000000; stroke-width:4; stroke-opacity:1; fill:none" points="
  1538.51,493.644 2249.26,493.644 2249.26,130.764 1538.51,130.764 1538.51,493.644 
  "/>
<polygon clip-path="url(#clip4501)" points="
1562.51,215.436 1706.51,215.436 1706.51,167.052 1562.51,167.052 1562.51,215.436 
  " fill="#ffa500" fill-rule="evenodd" fill-opacity="0.5"/>
<polyline clip-path="url(#clip4501)" style="stroke:#009af9; stroke-width:4; stroke-opacity:1; fill:none" points="
  1562.51,167.052 1706.51,167.052 
  "/>
<g clip-path="url(#clip4501)">
<text style="fill:#000000; fill-opacity:1; font-family:Arial,Helvetica Neue,Helvetica,sans-serif; font-size:48px; text-anchor:start;" transform="rotate(0, 1730.51, 208.744)" x="1730.51" y="208.744">Conjugate solution</text>
</g>
<polyline clip-path="url(#clip4501)" style="stroke:#e26f46; stroke-width:4; stroke-opacity:1; fill:none" points="
  1562.51,251.724 1706.51,251.724 
  "/>
<g clip-path="url(#clip4501)">
<text style="fill:#000000; fill-opacity:1; font-family:Arial,Helvetica Neue,Helvetica,sans-serif; font-size:48px; text-anchor:start;" transform="rotate(0, 1730.51, 269.224)" x="1730.51" y="269.224">Normal approximation</text>
</g>
<polyline clip-path="url(#clip4501)" style="stroke:#3da44d; stroke-width:4; stroke-opacity:1; fill:none" points="
  1562.51,312.204 1706.51,312.204 
  "/>
<g clip-path="url(#clip4501)">
<text style="fill:#000000; fill-opacity:1; font-family:Arial,Helvetica Neue,Helvetica,sans-serif; font-size:48px; text-anchor:start;" transform="rotate(0, 1730.51, 329.704)" x="1730.51" y="329.704">Turing chain</text>
</g>
<polyline clip-path="url(#clip4501)" style="stroke:#c271d2; stroke-width:4; stroke-opacity:1; fill:none" stroke-dasharray="16, 10" points="
  1562.51,372.684 1706.51,372.684 
  "/>
<g clip-path="url(#clip4501)">
<text style="fill:#000000; fill-opacity:1; font-family:Arial,Helvetica Neue,Helvetica,sans-serif; font-size:48px; text-anchor:start;" transform="rotate(0, 1730.51, 390.184)" x="1730.51" y="390.184">hpd lower bound</text>
</g>
<polyline clip-path="url(#clip4501)" style="stroke:#ac8d18; stroke-width:4; stroke-opacity:1; fill:none" stroke-dasharray="16, 10" points="
  1562.51,433.164 1706.51,433.164 
  "/>
<g clip-path="url(#clip4501)">
<text style="fill:#000000; fill-opacity:1; font-family:Arial,Helvetica Neue,Helvetica,sans-serif; font-size:48px; text-anchor:start;" transform="rotate(0, 1730.51, 450.664)" x="1730.51" y="450.664">hpd upper bound</text>
</g>
</svg>
