<?xml version="1.0" encoding="utf-8"?>
<svg xmlns="http://www.w3.org/2000/svg" xmlns:xlink="http://www.w3.org/1999/xlink" width="600" height="400" viewBox="0 0 2400 1600">
<defs>
  <clipPath id="clip7300">
    <rect x="0" y="0" width="2000" height="2000"/>
  </clipPath>
</defs>
<defs>
  <clipPath id="clip7301">
    <rect x="0" y="0" width="2400" height="1600"/>
  </clipPath>
</defs>
<polygon clip-path="url(#clip7301)" points="
0,1600 2400,1600 2400,0 0,0 
  " fill="#ffffff" fill-rule="evenodd" fill-opacity="1"/>
<defs>
  <clipPath id="clip7302">
    <rect x="480" y="0" width="1681" height="1600"/>
  </clipPath>
</defs>
<polygon clip-path="url(#clip7301)" points="
161.394,1503.47 2321.26,1503.47 2321.26,47.2441 161.394,47.2441 
  " fill="#ffffff" fill-rule="evenodd" fill-opacity="1"/>
<defs>
  <clipPath id="clip7303">
    <rect x="161" y="47" width="2161" height="1457"/>
  </clipPath>
</defs>
<polyline clip-path="url(#clip7303)" style="stroke:#000000; stroke-width:2; stroke-opacity:0.1; fill:none" points="
  222.522,1503.47 222.522,47.2441 
  "/>
<polyline clip-path="url(#clip7303)" style="stroke:#000000; stroke-width:2; stroke-opacity:0.1; fill:none" points="
  731.925,1503.47 731.925,47.2441 
  "/>
<polyline clip-path="url(#clip7303)" style="stroke:#000000; stroke-width:2; stroke-opacity:0.1; fill:none" points="
  1241.33,1503.47 1241.33,47.2441 
  "/>
<polyline clip-path="url(#clip7303)" style="stroke:#000000; stroke-width:2; stroke-opacity:0.1; fill:none" points="
  1750.73,1503.47 1750.73,47.2441 
  "/>
<polyline clip-path="url(#clip7303)" style="stroke:#000000; stroke-width:2; stroke-opacity:0.1; fill:none" points="
  2260.13,1503.47 2260.13,47.2441 
  "/>
<polyline clip-path="url(#clip7303)" style="stroke:#000000; stroke-width:2; stroke-opacity:0.1; fill:none" points="
  161.394,1462.26 2321.26,1462.26 
  "/>
<polyline clip-path="url(#clip7303)" style="stroke:#000000; stroke-width:2; stroke-opacity:0.1; fill:none" points="
  161.394,1210.71 2321.26,1210.71 
  "/>
<polyline clip-path="url(#clip7303)" style="stroke:#000000; stroke-width:2; stroke-opacity:0.1; fill:none" points="
  161.394,959.161 2321.26,959.161 
  "/>
<polyline clip-path="url(#clip7303)" style="stroke:#000000; stroke-width:2; stroke-opacity:0.1; fill:none" points="
  161.394,707.611 2321.26,707.611 
  "/>
<polyline clip-path="url(#clip7303)" style="stroke:#000000; stroke-width:2; stroke-opacity:0.1; fill:none" points="
  161.394,456.061 2321.26,456.061 
  "/>
<polyline clip-path="url(#clip7303)" style="stroke:#000000; stroke-width:2; stroke-opacity:0.1; fill:none" points="
  161.394,204.51 2321.26,204.51 
  "/>
<polyline clip-path="url(#clip7301)" style="stroke:#000000; stroke-width:4; stroke-opacity:1; fill:none" points="
  161.394,1503.47 2321.26,1503.47 
  "/>
<polyline clip-path="url(#clip7301)" style="stroke:#000000; stroke-width:4; stroke-opacity:1; fill:none" points="
  161.394,1503.47 161.394,47.2441 
  "/>
<polyline clip-path="url(#clip7301)" style="stroke:#000000; stroke-width:4; stroke-opacity:1; fill:none" points="
  222.522,1503.47 222.522,1481.63 
  "/>
<polyline clip-path="url(#clip7301)" style="stroke:#000000; stroke-width:4; stroke-opacity:1; fill:none" points="
  731.925,1503.47 731.925,1481.63 
  "/>
<polyline clip-path="url(#clip7301)" style="stroke:#000000; stroke-width:4; stroke-opacity:1; fill:none" points="
  1241.33,1503.47 1241.33,1481.63 
  "/>
<polyline clip-path="url(#clip7301)" style="stroke:#000000; stroke-width:4; stroke-opacity:1; fill:none" points="
  1750.73,1503.47 1750.73,1481.63 
  "/>
<polyline clip-path="url(#clip7301)" style="stroke:#000000; stroke-width:4; stroke-opacity:1; fill:none" points="
  2260.13,1503.47 2260.13,1481.63 
  "/>
<polyline clip-path="url(#clip7301)" style="stroke:#000000; stroke-width:4; stroke-opacity:1; fill:none" points="
  161.394,1462.26 193.792,1462.26 
  "/>
<polyline clip-path="url(#clip7301)" style="stroke:#000000; stroke-width:4; stroke-opacity:1; fill:none" points="
  161.394,1210.71 193.792,1210.71 
  "/>
<polyline clip-path="url(#clip7301)" style="stroke:#000000; stroke-width:4; stroke-opacity:1; fill:none" points="
  161.394,959.161 193.792,959.161 
  "/>
<polyline clip-path="url(#clip7301)" style="stroke:#000000; stroke-width:4; stroke-opacity:1; fill:none" points="
  161.394,707.611 193.792,707.611 
  "/>
<polyline clip-path="url(#clip7301)" style="stroke:#000000; stroke-width:4; stroke-opacity:1; fill:none" points="
  161.394,456.061 193.792,456.061 
  "/>
<polyline clip-path="url(#clip7301)" style="stroke:#000000; stroke-width:4; stroke-opacity:1; fill:none" points="
  161.394,204.51 193.792,204.51 
  "/>
<g clip-path="url(#clip7301)">
<text style="fill:#000000; fill-opacity:1; font-family:Arial,Helvetica Neue,Helvetica,sans-serif; font-size:48px; text-anchor:middle;" transform="rotate(0, 222.522, 1557.47)" x="222.522" y="1557.47">0.00</text>
</g>
<g clip-path="url(#clip7301)">
<text style="fill:#000000; fill-opacity:1; font-family:Arial,Helvetica Neue,Helvetica,sans-serif; font-size:48px; text-anchor:middle;" transform="rotate(0, 731.925, 1557.47)" x="731.925" y="1557.47">0.25</text>
</g>
<g clip-path="url(#clip7301)">
<text style="fill:#000000; fill-opacity:1; font-family:Arial,Helvetica Neue,Helvetica,sans-serif; font-size:48px; text-anchor:middle;" transform="rotate(0, 1241.33, 1557.47)" x="1241.33" y="1557.47">0.50</text>
</g>
<g clip-path="url(#clip7301)">
<text style="fill:#000000; fill-opacity:1; font-family:Arial,Helvetica Neue,Helvetica,sans-serif; font-size:48px; text-anchor:middle;" transform="rotate(0, 1750.73, 1557.47)" x="1750.73" y="1557.47">0.75</text>
</g>
<g clip-path="url(#clip7301)">
<text style="fill:#000000; fill-opacity:1; font-family:Arial,Helvetica Neue,Helvetica,sans-serif; font-size:48px; text-anchor:middle;" transform="rotate(0, 2260.13, 1557.47)" x="2260.13" y="1557.47">1.00</text>
</g>
<g clip-path="url(#clip7301)">
<text style="fill:#000000; fill-opacity:1; font-family:Arial,Helvetica Neue,Helvetica,sans-serif; font-size:48px; text-anchor:end;" transform="rotate(0, 137.394, 1479.76)" x="137.394" y="1479.76">0.0</text>
</g>
<g clip-path="url(#clip7301)">
<text style="fill:#000000; fill-opacity:1; font-family:Arial,Helvetica Neue,Helvetica,sans-serif; font-size:48px; text-anchor:end;" transform="rotate(0, 137.394, 1228.21)" x="137.394" y="1228.21">0.5</text>
</g>
<g clip-path="url(#clip7301)">
<text style="fill:#000000; fill-opacity:1; font-family:Arial,Helvetica Neue,Helvetica,sans-serif; font-size:48px; text-anchor:end;" transform="rotate(0, 137.394, 976.661)" x="137.394" y="976.661">1.0</text>
</g>
<g clip-path="url(#clip7301)">
<text style="fill:#000000; fill-opacity:1; font-family:Arial,Helvetica Neue,Helvetica,sans-serif; font-size:48px; text-anchor:end;" transform="rotate(0, 137.394, 725.111)" x="137.394" y="725.111">1.5</text>
</g>
<g clip-path="url(#clip7301)">
<text style="fill:#000000; fill-opacity:1; font-family:Arial,Helvetica Neue,Helvetica,sans-serif; font-size:48px; text-anchor:end;" transform="rotate(0, 137.394, 473.561)" x="137.394" y="473.561">2.0</text>
</g>
<g clip-path="url(#clip7301)">
<text style="fill:#000000; fill-opacity:1; font-family:Arial,Helvetica Neue,Helvetica,sans-serif; font-size:48px; text-anchor:end;" transform="rotate(0, 137.394, 222.01)" x="137.394" y="222.01">2.5</text>
</g>
<polygon clip-path="url(#clip7303)" points="
222.522,1462.26 242.898,1462.26 263.275,1462.26 283.651,1462.26 304.027,1462.26 324.403,1462.25 344.779,1462.24 365.155,1462.22 385.531,1462.17 405.907,1462.09 
  426.283,1461.95 446.659,1461.73 467.035,1461.4 487.412,1460.92 507.788,1460.24 528.164,1459.3 548.54,1458.06 568.916,1456.43 589.292,1454.34 609.668,1451.69 
  630.044,1448.41 650.42,1444.39 670.796,1439.52 691.172,1433.7 711.549,1426.81 731.925,1418.73 752.301,1409.36 772.677,1398.57 793.053,1386.25 813.429,1372.29 
  833.805,1356.59 854.181,1339.05 874.557,1319.58 894.933,1298.11 915.309,1274.57 935.686,1248.92 956.062,1221.11 976.438,1191.14 996.814,1159 1017.19,1124.73 
  1037.57,1088.37 1057.94,1049.98 1078.32,1009.66 1098.69,967.53 1119.07,923.726 1139.45,878.417 1159.82,831.794 1180.2,784.075 1200.57,735.5 1220.95,686.334 
  1241.33,636.862 1261.7,587.392 1282.08,538.249 1302.46,489.777 1322.83,442.332 1343.21,396.285 1363.58,352.013 1383.96,309.901 1404.34,270.334 1424.71,233.698 
  1445.09,200.372 1465.46,170.725 1485.84,145.113 1506.22,123.872 1526.59,107.318 1546.97,95.7345 1567.34,89.3761 1587.72,88.4582 1608.1,93.1547 1628.47,103.593 
  1648.85,119.849 1669.22,141.945 1689.6,169.843 1709.98,203.445 1730.35,242.586 1750.73,287.035 1771.11,336.493 1791.48,390.59 1811.86,448.888 1832.23,510.88 
  1852.61,575.996 1872.99,643.599 1893.36,712.998 1913.74,783.449 1934.11,854.169 1954.49,924.337 1974.87,993.114 1995.24,1059.66 2015.62,1123.13 2035.99,1182.72 
  2056.37,1237.67 2076.75,1287.31 2097.12,1331.06 2117.5,1368.48 2137.88,1399.29 2158.25,1423.43 2178.63,1441.09 2199,1452.76 2219.38,1459.27 2239.76,1461.86 
  2260.13,1462.26 2260.13,1462.26 2239.76,1462.26 2219.38,1462.26 2199,1462.26 2178.63,1462.26 2158.25,1462.26 2137.88,1462.26 2117.5,1462.26 2097.12,1462.26 
  2076.75,1462.26 2056.37,1462.26 2035.99,1462.26 2015.62,1462.26 1995.24,1462.26 1974.87,1462.26 1954.49,1462.26 1934.11,1462.26 1913.74,1462.26 1893.36,1462.26 
  1872.99,1462.26 1852.61,1462.26 1832.23,1462.26 1811.86,1462.26 1791.48,1462.26 1771.11,1462.26 1750.73,1462.26 1730.35,1462.26 1709.98,1462.26 1689.6,1462.26 
  1669.22,1462.26 1648.85,1462.26 1628.47,1462.26 1608.1,1462.26 1587.72,1462.26 1567.34,1462.26 1546.97,1462.26 1526.59,1462.26 1506.22,1462.26 1485.84,1462.26 
  1465.46,1462.26 1445.09,1462.26 1424.71,1462.26 1404.34,1462.26 1383.96,1462.26 1363.58,1462.26 1343.21,1462.26 1322.83,1462.26 1302.46,1462.26 1282.08,1462.26 
  1261.7,1462.26 1241.33,1462.26 1220.95,1462.26 1200.57,1462.26 1180.2,1462.26 1159.82,1462.26 1139.45,1462.26 1119.07,1462.26 1098.69,1462.26 1078.32,1462.26 
  1057.94,1462.26 1037.57,1462.26 1017.19,1462.26 996.814,1462.26 976.438,1462.26 956.062,1462.26 935.686,1462.26 915.309,1462.26 894.933,1462.26 874.557,1462.26 
  854.181,1462.26 833.805,1462.26 813.429,1462.26 793.053,1462.26 772.677,1462.26 752.301,1462.26 731.925,1462.26 711.549,1462.26 691.172,1462.26 670.796,1462.26 
  650.42,1462.26 630.044,1462.26 609.668,1462.26 589.292,1462.26 568.916,1462.26 548.54,1462.26 528.164,1462.26 507.788,1462.26 487.412,1462.26 467.035,1462.26 
  446.659,1462.26 426.283,1462.26 405.907,1462.26 385.531,1462.26 365.155,1462.26 344.779,1462.26 324.403,1462.26 304.027,1462.26 283.651,1462.26 263.275,1462.26 
  242.898,1462.26 222.522,1462.26 
  " fill="#ffa500" fill-rule="evenodd" fill-opacity="0.5"/>
<polyline clip-path="url(#clip7303)" style="stroke:#009af9; stroke-width:4; stroke-opacity:1; fill:none" points="
  222.522,1462.26 242.898,1462.26 263.275,1462.26 283.651,1462.26 304.027,1462.26 324.403,1462.25 344.779,1462.24 365.155,1462.22 385.531,1462.17 405.907,1462.09 
  426.283,1461.95 446.659,1461.73 467.035,1461.4 487.412,1460.92 507.788,1460.24 528.164,1459.3 548.54,1458.06 568.916,1456.43 589.292,1454.34 609.668,1451.69 
  630.044,1448.41 650.42,1444.39 670.796,1439.52 691.172,1433.7 711.549,1426.81 731.925,1418.73 752.301,1409.36 772.677,1398.57 793.053,1386.25 813.429,1372.29 
  833.805,1356.59 854.181,1339.05 874.557,1319.58 894.933,1298.11 915.309,1274.57 935.686,1248.92 956.062,1221.11 976.438,1191.14 996.814,1159 1017.19,1124.73 
  1037.57,1088.37 1057.94,1049.98 1078.32,1009.66 1098.69,967.53 1119.07,923.726 1139.45,878.417 1159.82,831.794 1180.2,784.075 1200.57,735.5 1220.95,686.334 
  1241.33,636.862 1261.7,587.392 1282.08,538.249 1302.46,489.777 1322.83,442.332 1343.21,396.285 1363.58,352.013 1383.96,309.901 1404.34,270.334 1424.71,233.698 
  1445.09,200.372 1465.46,170.725 1485.84,145.113 1506.22,123.872 1526.59,107.318 1546.97,95.7345 1567.34,89.3761 1587.72,88.4582 1608.1,93.1547 1628.47,103.593 
  1648.85,119.849 1669.22,141.945 1689.6,169.843 1709.98,203.445 1730.35,242.586 1750.73,287.035 1771.11,336.493 1791.48,390.59 1811.86,448.888 1832.23,510.88 
  1852.61,575.996 1872.99,643.599 1893.36,712.998 1913.74,783.449 1934.11,854.169 1954.49,924.337 1974.87,993.114 1995.24,1059.66 2015.62,1123.13 2035.99,1182.72 
  2056.37,1237.67 2076.75,1287.31 2097.12,1331.06 2117.5,1368.48 2137.88,1399.29 2158.25,1423.43 2178.63,1441.09 2199,1452.76 2219.38,1459.27 2239.76,1461.86 
  2260.13,1462.26 
  "/>
<polygon clip-path="url(#clip7301)" points="
1610.62,251.724 2249.26,251.724 2249.26,130.764 1610.62,130.764 
  " fill="#ffffff" fill-rule="evenodd" fill-opacity="1"/>
<polyline clip-path="url(#clip7301)" style="stroke:#000000; stroke-width:4; stroke-opacity:1; fill:none" points="
  1610.62,251.724 2249.26,251.724 2249.26,130.764 1610.62,130.764 1610.62,251.724 
  "/>
<polygon clip-path="url(#clip7301)" points="
1634.62,215.436 1778.62,215.436 1778.62,167.052 1634.62,167.052 1634.62,215.436 
  " fill="#ffa500" fill-rule="evenodd" fill-opacity="0.5"/>
<polyline clip-path="url(#clip7301)" style="stroke:#009af9; stroke-width:4; stroke-opacity:1; fill:none" points="
  1634.62,167.052 1778.62,167.052 
  "/>
<g clip-path="url(#clip7301)">
<text style="fill:#000000; fill-opacity:1; font-family:Arial,Helvetica Neue,Helvetica,sans-serif; font-size:48px; text-anchor:start;" transform="rotate(0, 1802.62, 208.744)" x="1802.62" y="208.744">Conjugate solution</text>
</g>
</svg>
