<?xml version="1.0" encoding="utf-8"?>
<svg xmlns="http://www.w3.org/2000/svg" xmlns:xlink="http://www.w3.org/1999/xlink" width="600" height="400" viewBox="0 0 2400 1600">
<defs>
  <clipPath id="clip7700">
    <rect x="0" y="0" width="2000" height="2000"/>
  </clipPath>
</defs>
<defs>
  <clipPath id="clip7701">
    <rect x="0" y="0" width="2400" height="1600"/>
  </clipPath>
</defs>
<polygon clip-path="url(#clip7701)" points="
0,1600 2400,1600 2400,0 0,0 
  " fill="#ffffff" fill-rule="evenodd" fill-opacity="1"/>
<defs>
  <clipPath id="clip7702">
    <rect x="480" y="0" width="1681" height="1600"/>
  </clipPath>
</defs>
<polygon clip-path="url(#clip7701)" points="
161.394,1503.47 2321.26,1503.47 2321.26,47.2441 161.394,47.2441 
  " fill="#ffffff" fill-rule="evenodd" fill-opacity="1"/>
<defs>
  <clipPath id="clip7703">
    <rect x="161" y="47" width="2161" height="1457"/>
  </clipPath>
</defs>
<polyline clip-path="url(#clip7703)" style="stroke:#000000; stroke-width:2; stroke-opacity:0.1; fill:none" points="
  222.522,1503.47 222.522,47.2441 
  "/>
<polyline clip-path="url(#clip7703)" style="stroke:#000000; stroke-width:2; stroke-opacity:0.1; fill:none" points="
  702.528,1503.47 702.528,47.2441 
  "/>
<polyline clip-path="url(#clip7703)" style="stroke:#000000; stroke-width:2; stroke-opacity:0.1; fill:none" points="
  1182.53,1503.47 1182.53,47.2441 
  "/>
<polyline clip-path="url(#clip7703)" style="stroke:#000000; stroke-width:2; stroke-opacity:0.1; fill:none" points="
  1662.54,1503.47 1662.54,47.2441 
  "/>
<polyline clip-path="url(#clip7703)" style="stroke:#000000; stroke-width:2; stroke-opacity:0.1; fill:none" points="
  2142.54,1503.47 2142.54,47.2441 
  "/>
<polyline clip-path="url(#clip7703)" style="stroke:#000000; stroke-width:2; stroke-opacity:0.1; fill:none" points="
  161.394,1462.26 2321.26,1462.26 
  "/>
<polyline clip-path="url(#clip7703)" style="stroke:#000000; stroke-width:2; stroke-opacity:0.1; fill:none" points="
  161.394,1210.71 2321.26,1210.71 
  "/>
<polyline clip-path="url(#clip7703)" style="stroke:#000000; stroke-width:2; stroke-opacity:0.1; fill:none" points="
  161.394,959.161 2321.26,959.161 
  "/>
<polyline clip-path="url(#clip7703)" style="stroke:#000000; stroke-width:2; stroke-opacity:0.1; fill:none" points="
  161.394,707.611 2321.26,707.611 
  "/>
<polyline clip-path="url(#clip7703)" style="stroke:#000000; stroke-width:2; stroke-opacity:0.1; fill:none" points="
  161.394,456.061 2321.26,456.061 
  "/>
<polyline clip-path="url(#clip7703)" style="stroke:#000000; stroke-width:2; stroke-opacity:0.1; fill:none" points="
  161.394,204.51 2321.26,204.51 
  "/>
<polyline clip-path="url(#clip7701)" style="stroke:#000000; stroke-width:4; stroke-opacity:1; fill:none" points="
  161.394,1503.47 2321.26,1503.47 
  "/>
<polyline clip-path="url(#clip7701)" style="stroke:#000000; stroke-width:4; stroke-opacity:1; fill:none" points="
  161.394,1503.47 161.394,47.2441 
  "/>
<polyline clip-path="url(#clip7701)" style="stroke:#000000; stroke-width:4; stroke-opacity:1; fill:none" points="
  222.522,1503.47 222.522,1481.63 
  "/>
<polyline clip-path="url(#clip7701)" style="stroke:#000000; stroke-width:4; stroke-opacity:1; fill:none" points="
  702.528,1503.47 702.528,1481.63 
  "/>
<polyline clip-path="url(#clip7701)" style="stroke:#000000; stroke-width:4; stroke-opacity:1; fill:none" points="
  1182.53,1503.47 1182.53,1481.63 
  "/>
<polyline clip-path="url(#clip7701)" style="stroke:#000000; stroke-width:4; stroke-opacity:1; fill:none" points="
  1662.54,1503.47 1662.54,1481.63 
  "/>
<polyline clip-path="url(#clip7701)" style="stroke:#000000; stroke-width:4; stroke-opacity:1; fill:none" points="
  2142.54,1503.47 2142.54,1481.63 
  "/>
<polyline clip-path="url(#clip7701)" style="stroke:#000000; stroke-width:4; stroke-opacity:1; fill:none" points="
  161.394,1462.26 193.792,1462.26 
  "/>
<polyline clip-path="url(#clip7701)" style="stroke:#000000; stroke-width:4; stroke-opacity:1; fill:none" points="
  161.394,1210.71 193.792,1210.71 
  "/>
<polyline clip-path="url(#clip7701)" style="stroke:#000000; stroke-width:4; stroke-opacity:1; fill:none" points="
  161.394,959.161 193.792,959.161 
  "/>
<polyline clip-path="url(#clip7701)" style="stroke:#000000; stroke-width:4; stroke-opacity:1; fill:none" points="
  161.394,707.611 193.792,707.611 
  "/>
<polyline clip-path="url(#clip7701)" style="stroke:#000000; stroke-width:4; stroke-opacity:1; fill:none" points="
  161.394,456.061 193.792,456.061 
  "/>
<polyline clip-path="url(#clip7701)" style="stroke:#000000; stroke-width:4; stroke-opacity:1; fill:none" points="
  161.394,204.51 193.792,204.51 
  "/>
<g clip-path="url(#clip7701)">
<text style="fill:#000000; fill-opacity:1; font-family:Arial,Helvetica Neue,Helvetica,sans-serif; font-size:48px; text-anchor:middle;" transform="rotate(0, 222.522, 1557.47)" x="222.522" y="1557.47">0.00</text>
</g>
<g clip-path="url(#clip7701)">
<text style="fill:#000000; fill-opacity:1; font-family:Arial,Helvetica Neue,Helvetica,sans-serif; font-size:48px; text-anchor:middle;" transform="rotate(0, 702.528, 1557.47)" x="702.528" y="1557.47">0.25</text>
</g>
<g clip-path="url(#clip7701)">
<text style="fill:#000000; fill-opacity:1; font-family:Arial,Helvetica Neue,Helvetica,sans-serif; font-size:48px; text-anchor:middle;" transform="rotate(0, 1182.53, 1557.47)" x="1182.53" y="1557.47">0.50</text>
</g>
<g clip-path="url(#clip7701)">
<text style="fill:#000000; fill-opacity:1; font-family:Arial,Helvetica Neue,Helvetica,sans-serif; font-size:48px; text-anchor:middle;" transform="rotate(0, 1662.54, 1557.47)" x="1662.54" y="1557.47">0.75</text>
</g>
<g clip-path="url(#clip7701)">
<text style="fill:#000000; fill-opacity:1; font-family:Arial,Helvetica Neue,Helvetica,sans-serif; font-size:48px; text-anchor:middle;" transform="rotate(0, 2142.54, 1557.47)" x="2142.54" y="1557.47">1.00</text>
</g>
<g clip-path="url(#clip7701)">
<text style="fill:#000000; fill-opacity:1; font-family:Arial,Helvetica Neue,Helvetica,sans-serif; font-size:48px; text-anchor:end;" transform="rotate(0, 137.394, 1479.76)" x="137.394" y="1479.76">0.0</text>
</g>
<g clip-path="url(#clip7701)">
<text style="fill:#000000; fill-opacity:1; font-family:Arial,Helvetica Neue,Helvetica,sans-serif; font-size:48px; text-anchor:end;" transform="rotate(0, 137.394, 1228.21)" x="137.394" y="1228.21">0.5</text>
</g>
<g clip-path="url(#clip7701)">
<text style="fill:#000000; fill-opacity:1; font-family:Arial,Helvetica Neue,Helvetica,sans-serif; font-size:48px; text-anchor:end;" transform="rotate(0, 137.394, 976.661)" x="137.394" y="976.661">1.0</text>
</g>
<g clip-path="url(#clip7701)">
<text style="fill:#000000; fill-opacity:1; font-family:Arial,Helvetica Neue,Helvetica,sans-serif; font-size:48px; text-anchor:end;" transform="rotate(0, 137.394, 725.111)" x="137.394" y="725.111">1.5</text>
</g>
<g clip-path="url(#clip7701)">
<text style="fill:#000000; fill-opacity:1; font-family:Arial,Helvetica Neue,Helvetica,sans-serif; font-size:48px; text-anchor:end;" transform="rotate(0, 137.394, 473.561)" x="137.394" y="473.561">2.0</text>
</g>
<g clip-path="url(#clip7701)">
<text style="fill:#000000; fill-opacity:1; font-family:Arial,Helvetica Neue,Helvetica,sans-serif; font-size:48px; text-anchor:end;" transform="rotate(0, 137.394, 222.01)" x="137.394" y="222.01">2.5</text>
</g>
<polygon clip-path="url(#clip7703)" points="
222.522,1462.26 241.723,1462.26 260.923,1462.26 280.123,1462.26 299.323,1462.26 318.523,1462.25 337.724,1462.24 356.924,1462.22 376.124,1462.17 395.324,1462.09 
  414.525,1461.95 433.725,1461.73 452.925,1461.4 472.125,1460.92 491.325,1460.24 510.526,1459.3 529.726,1458.06 548.926,1456.43 568.126,1454.34 587.326,1451.69 
  606.527,1448.41 625.727,1444.39 644.927,1439.52 664.127,1433.7 683.328,1426.81 702.528,1418.73 721.728,1409.36 740.928,1398.57 760.128,1386.25 779.329,1372.29 
  798.529,1356.59 817.729,1339.05 836.929,1319.58 856.13,1298.11 875.33,1274.57 894.53,1248.92 913.73,1221.11 932.93,1191.14 952.131,1159 971.331,1124.73 
  990.531,1088.37 1009.73,1049.98 1028.93,1009.66 1048.13,967.53 1067.33,923.726 1086.53,878.417 1105.73,831.794 1124.93,784.075 1144.13,735.5 1163.33,686.334 
  1182.53,636.862 1201.73,587.392 1220.93,538.249 1240.13,489.777 1259.33,442.332 1278.53,396.285 1297.73,352.013 1316.93,309.901 1336.14,270.334 1355.34,233.698 
  1374.54,200.372 1393.74,170.725 1412.94,145.113 1432.14,123.872 1451.34,107.318 1470.54,95.7345 1489.74,89.3761 1508.94,88.4582 1528.14,93.1547 1547.34,103.593 
  1566.54,119.849 1585.74,141.945 1604.94,169.843 1624.14,203.445 1643.34,242.586 1662.54,287.035 1681.74,336.493 1700.94,390.59 1720.14,448.888 1739.34,510.88 
  1758.54,575.996 1777.74,643.599 1796.94,712.998 1816.14,783.449 1835.34,854.169 1854.54,924.337 1873.74,993.114 1892.94,1059.66 1912.14,1123.13 1931.34,1182.72 
  1950.54,1237.67 1969.74,1287.31 1988.94,1331.06 2008.14,1368.48 2027.34,1399.29 2046.54,1423.43 2065.74,1441.09 2084.94,1452.76 2104.14,1459.27 2123.34,1461.86 
  2142.54,1462.26 2142.54,1462.26 2123.34,1462.26 2104.14,1462.26 2084.94,1462.26 2065.74,1462.26 2046.54,1462.26 2027.34,1462.26 2008.14,1462.26 1988.94,1462.26 
  1969.74,1462.26 1950.54,1462.26 1931.34,1462.26 1912.14,1462.26 1892.94,1462.26 1873.74,1462.26 1854.54,1462.26 1835.34,1462.26 1816.14,1462.26 1796.94,1462.26 
  1777.74,1462.26 1758.54,1462.26 1739.34,1462.26 1720.14,1462.26 1700.94,1462.26 1681.74,1462.26 1662.54,1462.26 1643.34,1462.26 1624.14,1462.26 1604.94,1462.26 
  1585.74,1462.26 1566.54,1462.26 1547.34,1462.26 1528.14,1462.26 1508.94,1462.26 1489.74,1462.26 1470.54,1462.26 1451.34,1462.26 1432.14,1462.26 1412.94,1462.26 
  1393.74,1462.26 1374.54,1462.26 1355.34,1462.26 1336.14,1462.26 1316.93,1462.26 1297.73,1462.26 1278.53,1462.26 1259.33,1462.26 1240.13,1462.26 1220.93,1462.26 
  1201.73,1462.26 1182.53,1462.26 1163.33,1462.26 1144.13,1462.26 1124.93,1462.26 1105.73,1462.26 1086.53,1462.26 1067.33,1462.26 1048.13,1462.26 1028.93,1462.26 
  1009.73,1462.26 990.531,1462.26 971.331,1462.26 952.131,1462.26 932.93,1462.26 913.73,1462.26 894.53,1462.26 875.33,1462.26 856.13,1462.26 836.929,1462.26 
  817.729,1462.26 798.529,1462.26 779.329,1462.26 760.128,1462.26 740.928,1462.26 721.728,1462.26 702.528,1462.26 683.328,1462.26 664.127,1462.26 644.927,1462.26 
  625.727,1462.26 606.527,1462.26 587.326,1462.26 568.126,1462.26 548.926,1462.26 529.726,1462.26 510.526,1462.26 491.325,1462.26 472.125,1462.26 452.925,1462.26 
  433.725,1462.26 414.525,1462.26 395.324,1462.26 376.124,1462.26 356.924,1462.26 337.724,1462.26 318.523,1462.26 299.323,1462.26 280.123,1462.26 260.923,1462.26 
  241.723,1462.26 222.522,1462.26 
  " fill="#ffa500" fill-rule="evenodd" fill-opacity="0.5"/>
<polyline clip-path="url(#clip7703)" style="stroke:#009af9; stroke-width:4; stroke-opacity:1; fill:none" points="
  222.522,1462.26 241.723,1462.26 260.923,1462.26 280.123,1462.26 299.323,1462.26 318.523,1462.25 337.724,1462.24 356.924,1462.22 376.124,1462.17 395.324,1462.09 
  414.525,1461.95 433.725,1461.73 452.925,1461.4 472.125,1460.92 491.325,1460.24 510.526,1459.3 529.726,1458.06 548.926,1456.43 568.126,1454.34 587.326,1451.69 
  606.527,1448.41 625.727,1444.39 644.927,1439.52 664.127,1433.7 683.328,1426.81 702.528,1418.73 721.728,1409.36 740.928,1398.57 760.128,1386.25 779.329,1372.29 
  798.529,1356.59 817.729,1339.05 836.929,1319.58 856.13,1298.11 875.33,1274.57 894.53,1248.92 913.73,1221.11 932.93,1191.14 952.131,1159 971.331,1124.73 
  990.531,1088.37 1009.73,1049.98 1028.93,1009.66 1048.13,967.53 1067.33,923.726 1086.53,878.417 1105.73,831.794 1124.93,784.075 1144.13,735.5 1163.33,686.334 
  1182.53,636.862 1201.73,587.392 1220.93,538.249 1240.13,489.777 1259.33,442.332 1278.53,396.285 1297.73,352.013 1316.93,309.901 1336.14,270.334 1355.34,233.698 
  1374.54,200.372 1393.74,170.725 1412.94,145.113 1432.14,123.872 1451.34,107.318 1470.54,95.7345 1489.74,89.3761 1508.94,88.4582 1528.14,93.1547 1547.34,103.593 
  1566.54,119.849 1585.74,141.945 1604.94,169.843 1624.14,203.445 1643.34,242.586 1662.54,287.035 1681.74,336.493 1700.94,390.59 1720.14,448.888 1739.34,510.88 
  1758.54,575.996 1777.74,643.599 1796.94,712.998 1816.14,783.449 1835.34,854.169 1854.54,924.337 1873.74,993.114 1892.94,1059.66 1912.14,1123.13 1931.34,1182.72 
  1950.54,1237.67 1969.74,1287.31 1988.94,1331.06 2008.14,1368.48 2027.34,1399.29 2046.54,1423.43 2065.74,1441.09 2084.94,1452.76 2104.14,1459.27 2123.34,1461.86 
  2142.54,1462.26 
  "/>
<polyline clip-path="url(#clip7703)" style="stroke:#e26f46; stroke-width:4; stroke-opacity:1; fill:none" points="
  222.522,1462.07 241.723,1462.01 260.923,1461.93 280.123,1461.84 299.323,1461.72 318.523,1461.57 337.724,1461.39 356.924,1461.15 376.124,1460.86 395.324,1460.5 
  414.525,1460.06 433.725,1459.52 452.925,1458.85 472.125,1458.04 491.325,1457.06 510.526,1455.88 529.726,1454.46 548.926,1452.76 568.126,1450.73 587.326,1448.33 
  606.527,1445.48 625.727,1442.14 644.927,1438.23 664.127,1433.67 683.328,1428.37 702.528,1422.25 721.728,1415.21 740.928,1407.15 760.128,1397.95 779.329,1387.51 
  798.529,1375.72 817.729,1362.46 836.929,1347.61 856.13,1331.07 875.33,1312.73 894.53,1292.49 913.73,1270.26 932.93,1245.97 952.131,1219.55 971.331,1190.97 
  990.531,1160.21 1009.73,1127.26 1028.93,1092.18 1048.13,1055.01 1067.33,1015.85 1086.53,974.844 1105.73,932.14 1124.93,887.943 1144.13,842.487 1163.33,796.041 
  1182.53,748.906 1201.73,701.414 1220.93,653.924 1240.13,606.818 1259.33,560.496 1278.53,515.372 1297.73,471.866 1316.93,430.399 1336.14,391.388 1355.34,355.235 
  1374.54,322.323 1393.74,293.009 1412.94,267.616 1432.14,246.431 1451.34,229.694 1470.54,217.598 1489.74,210.284 1508.94,207.836 1528.14,210.284 1547.34,217.598 
  1566.54,229.694 1585.74,246.431 1604.94,267.616 1624.14,293.009 1643.34,322.323 1662.54,355.235 1681.74,391.388 1700.94,430.399 1720.14,471.866 1739.34,515.372 
  1758.54,560.496 1777.74,606.818 1796.94,653.924 1816.14,701.414 1835.34,748.906 1854.54,796.041 1873.74,842.487 1892.94,887.943 1912.14,932.14 1931.34,974.844 
  1950.54,1015.85 1969.74,1055.01 1988.94,1092.18 2008.14,1127.26 2027.34,1160.21 2046.54,1190.97 2065.74,1219.55 2084.94,1245.97 2104.14,1270.26 2123.34,1292.49 
  2142.54,1312.73 
  "/>
<polyline clip-path="url(#clip7703)" style="stroke:#3da44d; stroke-width:4; stroke-opacity:1; fill:none" points="
  480.687,1462.26 489.629,1462.26 498.571,1462.25 507.512,1462.25 516.454,1462.24 525.396,1462.22 534.338,1462.2 543.28,1462.16 552.222,1462.1 561.164,1462.01 
  570.106,1461.88 579.048,1461.7 587.99,1461.45 596.932,1461.11 605.874,1460.65 614.816,1460.05 623.758,1459.27 632.7,1458.28 641.642,1457.05 650.583,1455.53 
  659.525,1453.68 668.467,1451.46 677.409,1448.81 686.351,1445.7 695.293,1442.08 704.235,1437.89 713.177,1433.09 722.119,1427.65 731.061,1421.52 740.003,1414.67 
  748.945,1407.09 757.887,1398.74 766.829,1389.64 775.771,1379.8 784.712,1369.23 793.654,1358 802.596,1346.16 811.538,1333.82 820.48,1321.09 829.422,1308.12 
  838.364,1295.07 847.306,1282.09 856.248,1269.35 865.19,1256.96 874.132,1245.01 883.074,1233.53 892.016,1222.49 900.958,1211.79 909.9,1201.28 918.841,1190.74 
  927.783,1179.95 936.725,1168.68 945.667,1156.7 954.609,1143.84 963.551,1129.96 972.493,1115.01 981.435,1098.97 990.377,1081.89 999.319,1063.82 1008.26,1044.85 
  1017.2,1025.05 1026.14,1004.47 1035.09,983.124 1044.03,961.004 1052.97,938.082 1061.91,914.334 1070.85,889.764 1079.8,864.427 1088.74,838.452 1097.68,812.052 
  1106.62,785.528 1115.56,759.254 1124.51,733.653 1133.45,709.157 1142.39,686.164 1151.33,664.983 1160.27,645.791 1169.22,628.595 1178.16,613.207 1187.1,599.243 
  1196.04,586.143 1204.98,573.217 1213.93,559.698 1222.87,544.821 1231.81,527.897 1240.75,508.381 1249.69,485.926 1258.63,460.427 1267.58,432.028 1276.52,401.119 
  1285.46,368.304 1294.4,334.358 1303.34,300.173 1312.29,266.696 1321.23,234.866 1330.17,205.556 1339.11,179.521 1348.05,157.349 1357,139.426 1365.94,125.915 
  1374.88,116.741 1383.82,111.6 1392.76,109.98 1401.71,111.194 1410.65,114.438 1419.59,118.847 1428.53,123.572 1437.47,127.845 1446.42,131.046 1455.36,132.757 
  1464.3,132.793 1473.24,131.217 1482.18,128.324 1491.13,124.602 1500.07,120.673 1509.01,117.222 1517.95,114.916 1526.89,114.333 1535.83,115.902 1544.78,119.866 
  1553.72,126.275 1562.66,135.003 1571.6,145.788 1580.54,158.288 1589.49,172.146 1598.43,187.04 1607.37,202.728 1616.31,219.073 1625.25,236.037 1634.2,253.674 
  1643.14,272.095 1652.08,291.44 1661.02,311.849 1669.96,333.442 1678.91,356.305 1687.85,380.494 1696.79,406.035 1705.73,432.935 1714.67,461.177 1723.62,490.725 
  1732.56,521.507 1741.5,553.414 1750.44,586.28 1759.38,619.888 1768.33,653.97 1777.27,688.226 1786.21,722.347 1795.15,756.049 1804.09,789.101 1813.03,821.346 
  1821.98,852.713 1830.92,883.217 1839.86,912.941 1848.8,942.012 1857.74,970.573 1866.69,998.751 1875.63,1026.63 1884.57,1054.26 1893.51,1081.61 1902.45,1108.61 
  1911.4,1135.15 1920.34,1161.11 1929.28,1186.35 1938.22,1210.75 1947.16,1234.21 1956.11,1256.62 1965.05,1277.94 1973.99,1298.11 1982.93,1317.09 1991.87,1334.84 
  2000.82,1351.34 2009.76,1366.56 2018.7,1380.48 2027.64,1393.09 2036.58,1404.4 2045.53,1414.42 2054.47,1423.19 2063.41,1430.76 2072.35,1437.2 2081.29,1442.61 
  2090.23,1447.07 2099.18,1450.7 2108.12,1453.59 2117.06,1455.87 2126,1457.63 2134.94,1458.96 2143.89,1459.95 2152.83,1460.67 2161.77,1461.19 2170.71,1461.55 
  2179.65,1461.8 2188.6,1461.97 2197.54,1462.08 2206.48,1462.15 2215.42,1462.19 2224.36,1462.22 2233.31,1462.24 2242.25,1462.25 2251.19,1462.25 2260.13,1462.26 
  
  "/>
<polygon clip-path="url(#clip7701)" points="
1538.51,372.684 2249.26,372.684 2249.26,130.764 1538.51,130.764 
  " fill="#ffffff" fill-rule="evenodd" fill-opacity="1"/>
<polyline clip-path="url(#clip7701)" style="stroke:#000000; stroke-width:4; stroke-opacity:1; fill:none" points="
  1538.51,372.684 2249.26,372.684 2249.26,130.764 1538.51,130.764 1538.51,372.684 
  "/>
<polygon clip-path="url(#clip7701)" points="
1562.51,215.436 1706.51,215.436 1706.51,167.052 1562.51,167.052 1562.51,215.436 
  " fill="#ffa500" fill-rule="evenodd" fill-opacity="0.5"/>
<polyline clip-path="url(#clip7701)" style="stroke:#009af9; stroke-width:4; stroke-opacity:1; fill:none" points="
  1562.51,167.052 1706.51,167.052 
  "/>
<g clip-path="url(#clip7701)">
<text style="fill:#000000; fill-opacity:1; font-family:Arial,Helvetica Neue,Helvetica,sans-serif; font-size:48px; text-anchor:start;" transform="rotate(0, 1730.51, 208.744)" x="1730.51" y="208.744">Conjugate solution</text>
</g>
<polyline clip-path="url(#clip7701)" style="stroke:#e26f46; stroke-width:4; stroke-opacity:1; fill:none" points="
  1562.51,251.724 1706.51,251.724 
  "/>
<g clip-path="url(#clip7701)">
<text style="fill:#000000; fill-opacity:1; font-family:Arial,Helvetica Neue,Helvetica,sans-serif; font-size:48px; text-anchor:start;" transform="rotate(0, 1730.51, 269.224)" x="1730.51" y="269.224">Normal approximation</text>
</g>
<polyline clip-path="url(#clip7701)" style="stroke:#3da44d; stroke-width:4; stroke-opacity:1; fill:none" points="
  1562.51,312.204 1706.51,312.204 
  "/>
<g clip-path="url(#clip7701)">
<text style="fill:#000000; fill-opacity:1; font-family:Arial,Helvetica Neue,Helvetica,sans-serif; font-size:48px; text-anchor:start;" transform="rotate(0, 1730.51, 329.704)" x="1730.51" y="329.704">Turing chain</text>
</g>
</svg>
