<?xml version="1.0" encoding="utf-8"?>
<svg xmlns="http://www.w3.org/2000/svg" xmlns:xlink="http://www.w3.org/1999/xlink" width="600" height="300" viewBox="0 0 2400 1200">
<defs>
  <clipPath id="clip7500">
    <rect x="0" y="0" width="2000" height="2000"/>
  </clipPath>
</defs>
<defs>
  <clipPath id="clip7501">
    <rect x="0" y="0" width="2400" height="1200"/>
  </clipPath>
</defs>
<polygon clip-path="url(#clip7501)" points="
0,1200 2400,1200 2400,0 0,0 
  " fill="#ffffff" fill-rule="evenodd" fill-opacity="1"/>
<defs>
  <clipPath id="clip7502">
    <rect x="480" y="0" width="1681" height="1200"/>
  </clipPath>
</defs>
<polygon clip-path="url(#clip7501)" points="
161.394,1111.86 2321.26,1111.86 2321.26,47.2441 161.394,47.2441 
  " fill="#ffffff" fill-rule="evenodd" fill-opacity="1"/>
<defs>
  <clipPath id="clip7503">
    <rect x="161" y="47" width="2161" height="1066"/>
  </clipPath>
</defs>
<polyline clip-path="url(#clip7503)" style="stroke:#000000; stroke-width:2; stroke-opacity:0.1; fill:none" points="
  222.522,1111.86 222.522,47.2441 
  "/>
<polyline clip-path="url(#clip7503)" style="stroke:#000000; stroke-width:2; stroke-opacity:0.1; fill:none" points="
  705.04,1111.86 705.04,47.2441 
  "/>
<polyline clip-path="url(#clip7503)" style="stroke:#000000; stroke-width:2; stroke-opacity:0.1; fill:none" points="
  1187.56,1111.86 1187.56,47.2441 
  "/>
<polyline clip-path="url(#clip7503)" style="stroke:#000000; stroke-width:2; stroke-opacity:0.1; fill:none" points="
  1670.08,1111.86 1670.08,47.2441 
  "/>
<polyline clip-path="url(#clip7503)" style="stroke:#000000; stroke-width:2; stroke-opacity:0.1; fill:none" points="
  2152.59,1111.86 2152.59,47.2441 
  "/>
<polyline clip-path="url(#clip7503)" style="stroke:#000000; stroke-width:2; stroke-opacity:0.1; fill:none" points="
  161.394,1081.73 2321.26,1081.73 
  "/>
<polyline clip-path="url(#clip7503)" style="stroke:#000000; stroke-width:2; stroke-opacity:0.1; fill:none" points="
  161.394,897.825 2321.26,897.825 
  "/>
<polyline clip-path="url(#clip7503)" style="stroke:#000000; stroke-width:2; stroke-opacity:0.1; fill:none" points="
  161.394,713.924 2321.26,713.924 
  "/>
<polyline clip-path="url(#clip7503)" style="stroke:#000000; stroke-width:2; stroke-opacity:0.1; fill:none" points="
  161.394,530.022 2321.26,530.022 
  "/>
<polyline clip-path="url(#clip7503)" style="stroke:#000000; stroke-width:2; stroke-opacity:0.1; fill:none" points="
  161.394,346.12 2321.26,346.12 
  "/>
<polyline clip-path="url(#clip7503)" style="stroke:#000000; stroke-width:2; stroke-opacity:0.1; fill:none" points="
  161.394,162.218 2321.26,162.218 
  "/>
<polyline clip-path="url(#clip7501)" style="stroke:#000000; stroke-width:4; stroke-opacity:1; fill:none" points="
  161.394,1111.86 2321.26,1111.86 
  "/>
<polyline clip-path="url(#clip7501)" style="stroke:#000000; stroke-width:4; stroke-opacity:1; fill:none" points="
  161.394,1111.86 161.394,47.2441 
  "/>
<polyline clip-path="url(#clip7501)" style="stroke:#000000; stroke-width:4; stroke-opacity:1; fill:none" points="
  222.522,1111.86 222.522,1095.89 
  "/>
<polyline clip-path="url(#clip7501)" style="stroke:#000000; stroke-width:4; stroke-opacity:1; fill:none" points="
  705.04,1111.86 705.04,1095.89 
  "/>
<polyline clip-path="url(#clip7501)" style="stroke:#000000; stroke-width:4; stroke-opacity:1; fill:none" points="
  1187.56,1111.86 1187.56,1095.89 
  "/>
<polyline clip-path="url(#clip7501)" style="stroke:#000000; stroke-width:4; stroke-opacity:1; fill:none" points="
  1670.08,1111.86 1670.08,1095.89 
  "/>
<polyline clip-path="url(#clip7501)" style="stroke:#000000; stroke-width:4; stroke-opacity:1; fill:none" points="
  2152.59,1111.86 2152.59,1095.89 
  "/>
<polyline clip-path="url(#clip7501)" style="stroke:#000000; stroke-width:4; stroke-opacity:1; fill:none" points="
  161.394,1081.73 193.792,1081.73 
  "/>
<polyline clip-path="url(#clip7501)" style="stroke:#000000; stroke-width:4; stroke-opacity:1; fill:none" points="
  161.394,897.825 193.792,897.825 
  "/>
<polyline clip-path="url(#clip7501)" style="stroke:#000000; stroke-width:4; stroke-opacity:1; fill:none" points="
  161.394,713.924 193.792,713.924 
  "/>
<polyline clip-path="url(#clip7501)" style="stroke:#000000; stroke-width:4; stroke-opacity:1; fill:none" points="
  161.394,530.022 193.792,530.022 
  "/>
<polyline clip-path="url(#clip7501)" style="stroke:#000000; stroke-width:4; stroke-opacity:1; fill:none" points="
  161.394,346.12 193.792,346.12 
  "/>
<polyline clip-path="url(#clip7501)" style="stroke:#000000; stroke-width:4; stroke-opacity:1; fill:none" points="
  161.394,162.218 193.792,162.218 
  "/>
<g clip-path="url(#clip7501)">
<text style="fill:#000000; fill-opacity:1; font-family:Arial,Helvetica Neue,Helvetica,sans-serif; font-size:48px; text-anchor:middle;" transform="rotate(0, 222.522, 1165.86)" x="222.522" y="1165.86">0.00</text>
</g>
<g clip-path="url(#clip7501)">
<text style="fill:#000000; fill-opacity:1; font-family:Arial,Helvetica Neue,Helvetica,sans-serif; font-size:48px; text-anchor:middle;" transform="rotate(0, 705.04, 1165.86)" x="705.04" y="1165.86">0.25</text>
</g>
<g clip-path="url(#clip7501)">
<text style="fill:#000000; fill-opacity:1; font-family:Arial,Helvetica Neue,Helvetica,sans-serif; font-size:48px; text-anchor:middle;" transform="rotate(0, 1187.56, 1165.86)" x="1187.56" y="1165.86">0.50</text>
</g>
<g clip-path="url(#clip7501)">
<text style="fill:#000000; fill-opacity:1; font-family:Arial,Helvetica Neue,Helvetica,sans-serif; font-size:48px; text-anchor:middle;" transform="rotate(0, 1670.08, 1165.86)" x="1670.08" y="1165.86">0.75</text>
</g>
<g clip-path="url(#clip7501)">
<text style="fill:#000000; fill-opacity:1; font-family:Arial,Helvetica Neue,Helvetica,sans-serif; font-size:48px; text-anchor:middle;" transform="rotate(0, 2152.59, 1165.86)" x="2152.59" y="1165.86">1.00</text>
</g>
<g clip-path="url(#clip7501)">
<text style="fill:#000000; fill-opacity:1; font-family:Arial,Helvetica Neue,Helvetica,sans-serif; font-size:48px; text-anchor:end;" transform="rotate(0, 137.394, 1099.23)" x="137.394" y="1099.23">0.0</text>
</g>
<g clip-path="url(#clip7501)">
<text style="fill:#000000; fill-opacity:1; font-family:Arial,Helvetica Neue,Helvetica,sans-serif; font-size:48px; text-anchor:end;" transform="rotate(0, 137.394, 915.325)" x="137.394" y="915.325">0.5</text>
</g>
<g clip-path="url(#clip7501)">
<text style="fill:#000000; fill-opacity:1; font-family:Arial,Helvetica Neue,Helvetica,sans-serif; font-size:48px; text-anchor:end;" transform="rotate(0, 137.394, 731.424)" x="137.394" y="731.424">1.0</text>
</g>
<g clip-path="url(#clip7501)">
<text style="fill:#000000; fill-opacity:1; font-family:Arial,Helvetica Neue,Helvetica,sans-serif; font-size:48px; text-anchor:end;" transform="rotate(0, 137.394, 547.522)" x="137.394" y="547.522">1.5</text>
</g>
<g clip-path="url(#clip7501)">
<text style="fill:#000000; fill-opacity:1; font-family:Arial,Helvetica Neue,Helvetica,sans-serif; font-size:48px; text-anchor:end;" transform="rotate(0, 137.394, 363.62)" x="137.394" y="363.62">2.0</text>
</g>
<g clip-path="url(#clip7501)">
<text style="fill:#000000; fill-opacity:1; font-family:Arial,Helvetica Neue,Helvetica,sans-serif; font-size:48px; text-anchor:end;" transform="rotate(0, 137.394, 179.718)" x="137.394" y="179.718">2.5</text>
</g>
<polygon clip-path="url(#clip7503)" points="
222.522,1081.73 241.823,1081.73 261.124,1081.73 280.424,1081.73 299.725,1081.73 319.026,1081.72 338.327,1081.72 357.627,1081.7 376.928,1081.66 396.229,1081.6 
  415.53,1081.5 434.83,1081.34 454.131,1081.1 473.432,1080.75 492.732,1080.25 512.033,1079.57 531.334,1078.66 550.635,1077.46 569.935,1075.93 589.236,1074 
  608.537,1071.6 627.838,1068.66 647.138,1065.1 666.439,1060.85 685.74,1055.81 705.04,1049.91 724.341,1043.05 743.642,1035.16 762.943,1026.16 782.243,1015.95 
  801.544,1004.47 820.845,991.651 840.146,977.418 859.446,961.721 878.747,944.513 898.048,925.756 917.348,905.428 936.649,883.516 955.95,860.024 975.251,834.969 
  994.551,808.384 1013.85,780.319 1033.15,750.844 1052.45,720.042 1071.75,688.018 1091.05,654.894 1110.36,620.809 1129.66,585.923 1148.96,550.411 1168.26,514.467 
  1187.56,478.299 1206.86,442.133 1226.16,406.206 1245.46,370.769 1264.76,336.083 1284.06,302.419 1303.36,270.053 1322.66,239.266 1341.96,210.34 1361.27,183.556 
  1380.57,159.192 1399.87,137.518 1419.17,118.793 1438.47,103.265 1457.77,91.1624 1477.07,82.6943 1496.37,78.0457 1515.67,77.3747 1534.97,80.8082 1554.27,88.4393 
  1573.57,100.324 1592.87,116.478 1612.17,136.873 1631.48,161.439 1650.78,190.054 1670.08,222.549 1689.38,258.706 1708.68,298.255 1727.98,340.876 1747.28,386.197 
  1766.58,433.801 1785.88,483.224 1805.18,533.96 1824.48,585.466 1843.78,637.166 1863.08,688.465 1882.38,738.746 1901.69,787.393 1920.99,833.794 1940.29,877.359 
  1959.59,917.536 1978.89,953.827 1998.19,985.811 2017.49,1013.16 2036.79,1035.69 2056.09,1053.34 2075.39,1066.25 2094.69,1074.78 2113.99,1079.54 2133.29,1081.44 
  2152.59,1081.73 2152.59,1081.73 2133.29,1081.73 2113.99,1081.73 2094.69,1081.73 2075.39,1081.73 2056.09,1081.73 2036.79,1081.73 2017.49,1081.73 1998.19,1081.73 
  1978.89,1081.73 1959.59,1081.73 1940.29,1081.73 1920.99,1081.73 1901.69,1081.73 1882.38,1081.73 1863.08,1081.73 1843.78,1081.73 1824.48,1081.73 1805.18,1081.73 
  1785.88,1081.73 1766.58,1081.73 1747.28,1081.73 1727.98,1081.73 1708.68,1081.73 1689.38,1081.73 1670.08,1081.73 1650.78,1081.73 1631.48,1081.73 1612.17,1081.73 
  1592.87,1081.73 1573.57,1081.73 1554.27,1081.73 1534.97,1081.73 1515.67,1081.73 1496.37,1081.73 1477.07,1081.73 1457.77,1081.73 1438.47,1081.73 1419.17,1081.73 
  1399.87,1081.73 1380.57,1081.73 1361.27,1081.73 1341.96,1081.73 1322.66,1081.73 1303.36,1081.73 1284.06,1081.73 1264.76,1081.73 1245.46,1081.73 1226.16,1081.73 
  1206.86,1081.73 1187.56,1081.73 1168.26,1081.73 1148.96,1081.73 1129.66,1081.73 1110.36,1081.73 1091.05,1081.73 1071.75,1081.73 1052.45,1081.73 1033.15,1081.73 
  1013.85,1081.73 994.551,1081.73 975.251,1081.73 955.95,1081.73 936.649,1081.73 917.348,1081.73 898.048,1081.73 878.747,1081.73 859.446,1081.73 840.146,1081.73 
  820.845,1081.73 801.544,1081.73 782.243,1081.73 762.943,1081.73 743.642,1081.73 724.341,1081.73 705.04,1081.73 685.74,1081.73 666.439,1081.73 647.138,1081.73 
  627.838,1081.73 608.537,1081.73 589.236,1081.73 569.935,1081.73 550.635,1081.73 531.334,1081.73 512.033,1081.73 492.732,1081.73 473.432,1081.73 454.131,1081.73 
  434.83,1081.73 415.53,1081.73 396.229,1081.73 376.928,1081.73 357.627,1081.73 338.327,1081.73 319.026,1081.73 299.725,1081.73 280.424,1081.73 261.124,1081.73 
  241.823,1081.73 222.522,1081.73 
  " fill="#ffa500" fill-rule="evenodd" fill-opacity="0.5"/>
<polyline clip-path="url(#clip7503)" style="stroke:#009af9; stroke-width:4; stroke-opacity:1; fill:none" points="
  222.522,1081.73 241.823,1081.73 261.124,1081.73 280.424,1081.73 299.725,1081.73 319.026,1081.72 338.327,1081.72 357.627,1081.7 376.928,1081.66 396.229,1081.6 
  415.53,1081.5 434.83,1081.34 454.131,1081.1 473.432,1080.75 492.732,1080.25 512.033,1079.57 531.334,1078.66 550.635,1077.46 569.935,1075.93 589.236,1074 
  608.537,1071.6 627.838,1068.66 647.138,1065.1 666.439,1060.85 685.74,1055.81 705.04,1049.91 724.341,1043.05 743.642,1035.16 762.943,1026.16 782.243,1015.95 
  801.544,1004.47 820.845,991.651 840.146,977.418 859.446,961.721 878.747,944.513 898.048,925.756 917.348,905.428 936.649,883.516 955.95,860.024 975.251,834.969 
  994.551,808.384 1013.85,780.319 1033.15,750.844 1052.45,720.042 1071.75,688.018 1091.05,654.894 1110.36,620.809 1129.66,585.923 1148.96,550.411 1168.26,514.467 
  1187.56,478.299 1206.86,442.133 1226.16,406.206 1245.46,370.769 1264.76,336.083 1284.06,302.419 1303.36,270.053 1322.66,239.266 1341.96,210.34 1361.27,183.556 
  1380.57,159.192 1399.87,137.518 1419.17,118.793 1438.47,103.265 1457.77,91.1624 1477.07,82.6943 1496.37,78.0457 1515.67,77.3747 1534.97,80.8082 1554.27,88.4393 
  1573.57,100.324 1592.87,116.478 1612.17,136.873 1631.48,161.439 1650.78,190.054 1670.08,222.549 1689.38,258.706 1708.68,298.255 1727.98,340.876 1747.28,386.197 
  1766.58,433.801 1785.88,483.224 1805.18,533.96 1824.48,585.466 1843.78,637.166 1863.08,688.465 1882.38,738.746 1901.69,787.393 1920.99,833.794 1940.29,877.359 
  1959.59,917.536 1978.89,953.827 1998.19,985.811 2017.49,1013.16 2036.79,1035.69 2056.09,1053.34 2075.39,1066.25 2094.69,1074.78 2113.99,1079.54 2133.29,1081.44 
  2152.59,1081.73 
  "/>
<polyline clip-path="url(#clip7503)" style="stroke:#e26f46; stroke-width:4; stroke-opacity:1; fill:none" points="
  222.522,1081.58 241.823,1081.54 261.124,1081.49 280.424,1081.42 299.725,1081.33 319.026,1081.22 338.327,1081.09 357.627,1080.92 376.928,1080.7 396.229,1080.44 
  415.53,1080.12 434.83,1079.72 454.131,1079.24 473.432,1078.64 492.732,1077.93 512.033,1077.06 531.334,1076.02 550.635,1074.78 569.935,1073.3 589.236,1071.54 
  608.537,1069.46 627.838,1067.02 647.138,1064.16 666.439,1060.82 685.74,1056.95 705.04,1052.48 724.341,1047.33 743.642,1041.43 762.943,1034.71 782.243,1027.08 
  801.544,1018.46 820.845,1008.77 840.146,997.912 859.446,985.82 878.747,972.412 898.048,957.614 917.348,941.363 936.649,923.603 955.95,904.291 975.251,883.395 
  994.551,860.904 1013.85,836.82 1033.15,811.169 1052.45,783.996 1071.75,755.371 1091.05,725.389 1110.36,694.17 1129.66,661.858 1148.96,628.627 1168.26,594.671 
  1187.56,560.212 1206.86,525.491 1226.16,490.772 1245.46,456.334 1264.76,422.47 1284.06,389.48 1303.36,357.674 1322.66,327.359 1341.96,298.839 1361.27,272.409 
  1380.57,248.347 1399.87,226.916 1419.17,208.353 1438.47,192.865 1457.77,180.629 1477.07,171.786 1496.37,166.439 1515.67,164.649 1534.97,166.439 1554.27,171.786 
  1573.57,180.629 1592.87,192.865 1612.17,208.353 1631.48,226.916 1650.78,248.347 1670.08,272.409 1689.38,298.839 1708.68,327.359 1727.98,357.674 1747.28,389.48 
  1766.58,422.47 1785.88,456.334 1805.18,490.772 1824.48,525.491 1843.78,560.212 1863.08,594.671 1882.38,628.627 1901.69,661.858 1920.99,694.17 1940.29,725.389 
  1959.59,755.371 1978.89,783.996 1998.19,811.169 2017.49,836.82 2036.79,860.904 2056.09,883.395 2075.39,904.291 2094.69,923.603 2113.99,941.363 2133.29,957.614 
  2152.59,972.412 
  "/>
<polyline clip-path="url(#clip7503)" style="stroke:#3da44d; stroke-width:4; stroke-opacity:1; fill:none" points="
  330.71,1081.72 340.405,1081.72 350.101,1081.72 359.796,1081.72 369.492,1081.71 379.187,1081.7 388.883,1081.68 398.579,1081.65 408.274,1081.6 417.97,1081.52 
  427.665,1081.41 437.361,1081.26 447.057,1081.05 456.752,1080.78 466.448,1080.44 476.143,1080.02 485.839,1079.54 495.535,1078.99 505.23,1078.38 514.926,1077.73 
  524.621,1077.04 534.317,1076.31 544.012,1075.54 553.708,1074.72 563.404,1073.84 573.099,1072.88 582.795,1071.81 592.49,1070.62 602.186,1069.33 611.882,1067.95 
  621.577,1066.51 631.273,1065.07 640.968,1063.68 650.664,1062.39 660.36,1061.23 670.055,1060.21 679.751,1059.31 689.446,1058.47 699.142,1057.6 708.837,1056.61 
  718.533,1055.38 728.229,1053.81 737.924,1051.81 747.62,1049.29 757.315,1046.23 767.011,1042.58 776.707,1038.35 786.402,1033.53 796.098,1028.15 805.793,1022.19 
  815.489,1015.67 825.185,1008.56 834.88,1000.82 844.576,992.419 854.271,983.293 863.967,973.4 873.662,962.716 883.358,951.246 893.054,939.036 902.749,926.175 
  912.445,912.793 922.14,899.044 931.836,885.095 941.532,871.103 951.227,857.193 960.923,843.445 970.618,829.869 980.314,816.406 990.01,802.914 999.705,789.177 
  1009.4,774.909 1019.1,759.777 1028.79,743.424 1038.49,725.511 1048.18,705.759 1057.88,683.997 1067.57,660.201 1077.27,634.529 1086.97,607.333 1096.66,579.141 
  1106.36,550.625 1116.05,522.537 1125.75,495.635 1135.44,470.603 1145.14,447.981 1154.83,428.116 1164.53,411.131 1174.23,396.929 1183.92,385.218 1193.62,375.553 
  1203.31,367.388 1213.01,360.12 1222.7,353.14 1232.4,345.87 1242.09,337.799 1251.79,328.514 1261.49,317.733 1271.18,305.326 1280.88,291.341 1290.57,276.002 
  1300.27,259.707 1309.96,242.996 1319.66,226.507 1329.36,210.919 1339.05,196.887 1348.75,184.978 1358.44,175.619 1368.14,169.055 1377.83,165.335 1387.53,164.31 
  1397.22,165.65 1406.92,168.886 1416.62,173.441 1426.31,178.686 1436.01,183.973 1445.7,188.683 1455.4,192.26 1465.09,194.249 1474.79,194.329 1484.48,192.338 
  1494.18,188.3 1503.88,182.423 1513.57,175.089 1523.27,166.811 1532.96,158.184 1542.66,149.817 1552.35,142.272 1562.05,136.015 1571.74,131.384 1581.44,128.59 
  1591.14,127.737 1600.83,128.85 1610.53,131.921 1620.22,136.929 1629.92,143.86 1639.61,152.708 1649.31,163.471 1659.01,176.135 1668.7,190.678 1678.4,207.069 
  1688.09,225.285 1697.79,245.316 1707.48,267.176 1717.18,290.894 1726.87,316.486 1736.57,343.93 1746.27,373.124 1755.96,403.862 1765.66,435.828 1775.35,468.603 
  1785.05,501.708 1794.74,534.64 1804.44,566.928 1814.13,598.166 1823.83,628.045 1833.53,656.351 1843.22,682.969 1852.92,707.867 1862.61,731.082 1872.31,752.718 
  1882,772.942 1891.7,791.979 1901.39,810.107 1911.09,827.633 1920.79,844.863 1930.48,862.058 1940.18,879.393 1949.87,896.924 1959.57,914.581 1969.26,932.171 
  1978.96,949.415 1988.66,965.997 1998.35,981.61 2008.05,996.006 2017.74,1009.02 2027.44,1020.58 2037.13,1030.71 2046.83,1039.49 2056.52,1047.05 2066.22,1053.52 
  2075.92,1059.04 2085.61,1063.73 2095.31,1067.67 2105,1070.95 2114.7,1073.64 2124.39,1075.79 2134.09,1077.48 2143.78,1078.77 2153.48,1079.73 2163.18,1080.41 
  2172.87,1080.89 2182.57,1081.21 2192.26,1081.42 2201.96,1081.55 2211.65,1081.63 2221.35,1081.67 2231.04,1081.7 2240.74,1081.71 2250.44,1081.72 2260.13,1081.72 
  
  "/>
<polyline clip-path="url(#clip7503)" style="stroke:#c271d2; stroke-width:4; stroke-opacity:1; fill:none" stroke-dasharray="16, 10" points="
  994.141,107573 994.141,-106414 
  "/>
<polyline clip-path="url(#clip7503)" style="stroke:#ac8d18; stroke-width:4; stroke-opacity:1; fill:none" stroke-dasharray="16, 10" points="
  1947.42,107573 1947.42,-106414 
  "/>
<polygon clip-path="url(#clip7501)" points="
1538.51,493.644 2249.26,493.644 2249.26,130.764 1538.51,130.764 
  " fill="#ffffff" fill-rule="evenodd" fill-opacity="1"/>
<polyline clip-path="url(#clip7501)" style="stroke:#000000; stroke-width:4; stroke-opacity:1; fill:none" points="
  1538.51,493.644 2249.26,493.644 2249.26,130.764 1538.51,130.764 1538.51,493.644 
  "/>
<polygon clip-path="url(#clip7501)" points="
1562.51,215.436 1706.51,215.436 1706.51,167.052 1562.51,167.052 1562.51,215.436 
  " fill="#ffa500" fill-rule="evenodd" fill-opacity="0.5"/>
<polyline clip-path="url(#clip7501)" style="stroke:#009af9; stroke-width:4; stroke-opacity:1; fill:none" points="
  1562.51,167.052 1706.51,167.052 
  "/>
<g clip-path="url(#clip7501)">
<text style="fill:#000000; fill-opacity:1; font-family:Arial,Helvetica Neue,Helvetica,sans-serif; font-size:48px; text-anchor:start;" transform="rotate(0, 1730.51, 208.744)" x="1730.51" y="208.744">Conjugate solution</text>
</g>
<polyline clip-path="url(#clip7501)" style="stroke:#e26f46; stroke-width:4; stroke-opacity:1; fill:none" points="
  1562.51,251.724 1706.51,251.724 
  "/>
<g clip-path="url(#clip7501)">
<text style="fill:#000000; fill-opacity:1; font-family:Arial,Helvetica Neue,Helvetica,sans-serif; font-size:48px; text-anchor:start;" transform="rotate(0, 1730.51, 269.224)" x="1730.51" y="269.224">Normal approximation</text>
</g>
<polyline clip-path="url(#clip7501)" style="stroke:#3da44d; stroke-width:4; stroke-opacity:1; fill:none" points="
  1562.51,312.204 1706.51,312.204 
  "/>
<g clip-path="url(#clip7501)">
<text style="fill:#000000; fill-opacity:1; font-family:Arial,Helvetica Neue,Helvetica,sans-serif; font-size:48px; text-anchor:start;" transform="rotate(0, 1730.51, 329.704)" x="1730.51" y="329.704">Turing chain</text>
</g>
<polyline clip-path="url(#clip7501)" style="stroke:#c271d2; stroke-width:4; stroke-opacity:1; fill:none" stroke-dasharray="16, 10" points="
  1562.51,372.684 1706.51,372.684 
  "/>
<g clip-path="url(#clip7501)">
<text style="fill:#000000; fill-opacity:1; font-family:Arial,Helvetica Neue,Helvetica,sans-serif; font-size:48px; text-anchor:start;" transform="rotate(0, 1730.51, 390.184)" x="1730.51" y="390.184">hpd lower bound</text>
</g>
<polyline clip-path="url(#clip7501)" style="stroke:#ac8d18; stroke-width:4; stroke-opacity:1; fill:none" stroke-dasharray="16, 10" points="
  1562.51,433.164 1706.51,433.164 
  "/>
<g clip-path="url(#clip7501)">
<text style="fill:#000000; fill-opacity:1; font-family:Arial,Helvetica Neue,Helvetica,sans-serif; font-size:48px; text-anchor:start;" transform="rotate(0, 1730.51, 450.664)" x="1730.51" y="450.664">hpd upper bound</text>
</g>
</svg>
